<?xml version="1.0" encoding="UTF-8"?>
<svg xmlns="http://www.w3.org/2000/svg" xmlns:xlink="http://www.w3.org/1999/xlink" width="198px" height="47px" viewBox="0 0 198 47" version="1.1">
<g id="surface1">
<path style=" stroke:none;fill-rule:evenodd;fill:rgb(0.392157%,0%,0%);fill-opacity:1;" d="M -0.246094 -0.0585938 C 65.753906 -0.0585938 131.753906 -0.0585938 197.753906 -0.0585938 C 197.753906 15.609375 197.753906 31.273438 197.753906 46.941406 C 165.246094 46.941406 132.742188 46.941406 100.238281 46.941406 C 105.964844 46.402344 110.089844 45.464844 112.613281 44.121094 C 114.0625 43.402344 114.390625 42.65625 113.601562 41.890625 C 112.871094 40.679688 110.394531 39.738281 106.175781 39.070312 C 104.066406 38.640625 101.589844 38.363281 98.753906 38.246094 C 95.871094 38.109375 92.902344 38.089844 89.84375 38.1875 C 88.738281 38.296875 87.75 38.433594 86.871094 38.597656 C 86.167969 38.625 85.507812 38.683594 84.890625 38.773438 C 83.882812 39.054688 82.726562 39.289062 81.425781 39.480469 C 80.285156 39.730469 79.460938 40.023438 78.953125 40.359375 C 78.097656 40.648438 77.355469 40.960938 76.726562 41.300781 C 75.125 43.105469 77.023438 44.652344 82.417969 45.941406 C 82.710938 45.996094 83.042969 46.015625 83.40625 46 C 83.632812 46.113281 83.960938 46.210938 84.398438 46.296875 C 86.125 46.578125 87.941406 46.792969 89.84375 46.941406 C 59.8125 46.941406 29.78125 46.941406 -0.246094 46.941406 C -0.246094 31.273438 -0.246094 15.609375 -0.246094 -0.0585938 Z M -0.246094 -0.0585938 "/>
<path style=" stroke:none;fill-rule:evenodd;fill:rgb(68.235294%,57.647059%,27.45098%);fill-opacity:1;" d="M 100.238281 0.175781 C 102.769531 0.167969 105.242188 0.246094 107.664062 0.410156 C 107.664062 0.449219 107.664062 0.488281 107.664062 0.527344 C 106.984375 0.511719 106.324219 0.53125 105.683594 0.585938 C 105.957031 0.632812 106.121094 0.691406 106.175781 0.765625 C 105.847656 0.765625 105.519531 0.765625 105.1875 0.765625 C 103.511719 0.566406 101.863281 0.371094 100.238281 0.175781 Z M 100.238281 0.175781 "/>
<path style=" stroke:none;fill-rule:evenodd;fill:rgb(39.607843%,25.490196%,8.235294%);fill-opacity:1;" d="M 107.664062 0.527344 C 107.664062 0.488281 107.664062 0.449219 107.664062 0.410156 C 109.113281 0.417969 110.433594 0.496094 111.621094 0.644531 C 110.28125 0.636719 108.960938 0.597656 107.664062 0.527344 Z M 107.664062 0.527344 "/>
<path style=" stroke:none;fill-rule:evenodd;fill:rgb(10.588235%,57.254902%,63.921569%);fill-opacity:1;" d="M 105.1875 0.765625 C 105.519531 0.765625 105.847656 0.765625 106.175781 0.765625 C 114.753906 1.9375 121.519531 3.542969 126.472656 5.582031 C 125.8125 5.582031 125.152344 5.582031 124.492188 5.582031 C 124.65625 5.230469 123.996094 5.070312 122.511719 5.109375 C 122.617188 5.304688 122.453125 5.480469 122.015625 5.640625 C 123.640625 5.789062 123.804688 5.964844 122.511719 6.167969 C 121.503906 5.972656 120.511719 5.777344 119.542969 5.582031 C 119.015625 5.34375 118.355469 5.128906 117.5625 4.933594 C 118.214844 4.742188 118.875 4.761719 119.542969 4.992188 C 119.707031 4.933594 119.871094 4.875 120.039062 4.816406 C 119.441406 4.664062 119.109375 4.488281 119.046875 4.289062 C 118.550781 4.289062 118.058594 4.289062 117.5625 4.289062 C 117.648438 4.132812 117.480469 3.996094 117.066406 3.878906 C 115.558594 3.914062 114.074219 3.894531 112.613281 3.820312 C 113.902344 3.722656 115.222656 3.664062 116.574219 3.640625 C 115.933594 3.585938 115.273438 3.566406 114.59375 3.582031 C 114.535156 3.351562 114.863281 3.15625 115.582031 2.996094 C 114.835938 2.851562 114.257812 2.890625 113.851562 3.113281 C 113.472656 2.671875 112.894531 2.652344 112.117188 3.054688 C 111.648438 3.113281 111.152344 3.132812 110.632812 3.113281 C 110.632812 2.957031 110.632812 2.800781 110.632812 2.644531 C 111.128906 2.644531 111.621094 2.644531 112.117188 2.644531 C 112.046875 2.453125 112.378906 2.316406 113.109375 2.234375 C 112.28125 2.191406 111.457031 2.152344 110.632812 2.113281 C 110.859375 2.066406 111.023438 2.007812 111.128906 1.9375 C 109.199219 1.644531 107.054688 1.507812 104.691406 1.527344 C 104.199219 1.3125 103.457031 1.175781 102.464844 1.117188 C 99.976562 1.402344 97.417969 1.421875 94.792969 1.175781 C 92.152344 1.097656 89.511719 1.097656 86.871094 1.175781 C 83.613281 1.324219 83.613281 1.5 86.871094 1.703125 C 86.460938 1.742188 86.046875 1.78125 85.636719 1.820312 C 84.417969 1.726562 83.179688 1.648438 81.921875 1.585938 C 77.902344 1.90625 74.109375 2.335938 70.539062 2.878906 C 70.148438 2.792969 69.816406 2.695312 69.546875 2.585938 C 70.203125 2.488281 70.53125 2.351562 70.539062 2.171875 C 70.828125 1.984375 71.324219 1.828125 72.023438 1.703125 C 71.960938 1.632812 71.796875 1.59375 71.527344 1.585938 C 72.253906 1.441406 73.078125 1.324219 74.003906 1.234375 C 74.101562 1.457031 73.773438 1.632812 73.011719 1.761719 C 74.460938 1.6875 75.863281 1.550781 77.21875 1.351562 C 77.652344 1.378906 78.066406 1.417969 78.457031 1.46875 C 79.167969 1.195312 80.074219 1.117188 81.179688 1.234375 C 85.144531 0.898438 89.269531 0.664062 93.554688 0.527344 C 94.269531 0.582031 94.929688 0.660156 95.535156 0.765625 C 97.078125 0.640625 98.648438 0.621094 100.238281 0.703125 C 101.703125 0.855469 103.1875 0.992188 104.691406 1.117188 C 105.691406 1.042969 105.855469 0.925781 105.1875 0.765625 Z M 105.1875 0.765625 "/>
<path style=" stroke:none;fill-rule:evenodd;fill:rgb(7.058824%,49.019608%,61.176471%);fill-opacity:1;" d="M 100.238281 0.175781 C 101.863281 0.371094 103.511719 0.566406 105.1875 0.765625 C 105.855469 0.925781 105.691406 1.042969 104.691406 1.117188 C 103.1875 0.992188 101.703125 0.855469 100.238281 0.703125 C 98.648438 0.621094 97.078125 0.640625 95.535156 0.765625 C 94.929688 0.660156 94.269531 0.582031 93.554688 0.527344 C 89.269531 0.664062 85.144531 0.898438 81.179688 1.234375 C 80.074219 1.117188 79.167969 1.195312 78.457031 1.46875 C 78.066406 1.417969 77.652344 1.378906 77.21875 1.351562 C 75.863281 1.550781 74.460938 1.6875 73.011719 1.761719 C 73.773438 1.632812 74.101562 1.457031 74.003906 1.234375 C 80.019531 0.328125 86.621094 -0.0625 93.800781 0.0585938 C 96.035156 0.0585938 98.183594 0.0976562 100.238281 0.175781 Z M 100.238281 0.175781 "/>
<path style=" stroke:none;fill-rule:evenodd;fill:rgb(7.45098%,61.960784%,65.490196%);fill-opacity:1;" d="M 119.542969 5.582031 C 115.070312 4.914062 110.285156 4.40625 105.1875 4.054688 C 104.601562 3.871094 103.777344 3.773438 102.710938 3.761719 C 100.320312 3.742188 97.925781 3.722656 95.535156 3.703125 C 92.195312 3.675781 88.976562 3.753906 85.882812 3.9375 C 75.960938 4.492188 68.039062 5.746094 62.121094 7.695312 C 61.9375 7.339844 61.851562 6.988281 61.875 6.640625 C 62.527344 6.9375 63.105469 6.9375 63.609375 6.640625 C 63.160156 6.339844 62.664062 6.046875 62.121094 5.757812 C 62.578125 5.542969 62.992188 5.5625 63.359375 5.816406 C 63.808594 5.675781 64.382812 5.578125 65.09375 5.523438 C 64.453125 5.464844 63.792969 5.445312 63.113281 5.464844 C 63.242188 5.289062 63.078125 5.132812 62.617188 4.992188 C 61.339844 5.320312 60.597656 5.710938 60.390625 6.167969 C 58.886719 6.523438 58.308594 6.953125 58.65625 7.460938 C 58.328125 7.460938 57.996094 7.460938 57.667969 7.460938 C 57.832031 6.679688 58.824219 5.976562 60.636719 5.347656 C 61.128906 5.117188 61.625 4.882812 62.121094 4.640625 C 62.691406 4.3125 63.351562 4 64.101562 3.703125 C 64.851562 3.699219 65.429688 3.621094 65.835938 3.464844 C 66.617188 3.066406 67.691406 2.710938 69.050781 2.410156 C 69.546875 2.332031 70.042969 2.253906 70.539062 2.171875 C 70.53125 2.351562 70.203125 2.488281 69.546875 2.585938 C 69.816406 2.695312 70.148438 2.792969 70.539062 2.878906 C 74.109375 2.335938 77.902344 1.90625 81.921875 1.585938 C 83.179688 1.648438 84.417969 1.726562 85.636719 1.820312 C 86.046875 1.78125 86.460938 1.742188 86.871094 1.703125 C 83.613281 1.5 83.613281 1.324219 86.871094 1.175781 C 89.511719 1.097656 92.152344 1.097656 94.792969 1.175781 C 97.417969 1.421875 99.976562 1.402344 102.464844 1.117188 C 103.457031 1.175781 104.199219 1.3125 104.691406 1.527344 C 107.054688 1.507812 109.199219 1.644531 111.128906 1.9375 C 111.023438 2.007812 110.859375 2.066406 110.632812 2.113281 C 111.457031 2.152344 112.28125 2.191406 113.109375 2.234375 C 112.378906 2.316406 112.046875 2.453125 112.117188 2.644531 C 111.621094 2.644531 111.128906 2.644531 110.632812 2.644531 C 110.632812 2.800781 110.632812 2.957031 110.632812 3.113281 C 111.152344 3.132812 111.648438 3.113281 112.117188 3.054688 C 112.894531 2.652344 113.472656 2.671875 113.851562 3.113281 C 114.257812 2.890625 114.835938 2.851562 115.582031 2.996094 C 114.863281 3.15625 114.535156 3.351562 114.59375 3.582031 C 115.273438 3.566406 115.933594 3.585938 116.574219 3.640625 C 115.222656 3.664062 113.902344 3.722656 112.613281 3.820312 C 114.074219 3.894531 115.558594 3.914062 117.066406 3.878906 C 117.480469 3.996094 117.648438 4.132812 117.5625 4.289062 C 118.058594 4.289062 118.550781 4.289062 119.046875 4.289062 C 119.109375 4.488281 119.441406 4.664062 120.039062 4.816406 C 119.871094 4.875 119.707031 4.933594 119.542969 4.992188 C 118.875 4.761719 118.214844 4.742188 117.5625 4.933594 C 118.355469 5.128906 119.015625 5.34375 119.542969 5.582031 Z M 119.542969 5.582031 "/>
<path style=" stroke:none;fill-rule:evenodd;fill:rgb(47.058824%,54.117647%,37.254902%);fill-opacity:1;" d="M 71.527344 1.585938 C 71.796875 1.59375 71.960938 1.632812 72.023438 1.703125 C 71.324219 1.828125 70.828125 1.984375 70.539062 2.171875 C 70.042969 2.253906 69.546875 2.332031 69.050781 2.410156 C 69.152344 2.226562 69.484375 2.070312 70.042969 1.9375 C 69.980469 1.867188 69.816406 1.828125 69.546875 1.820312 C 69.9375 1.632812 70.597656 1.554688 71.527344 1.585938 Z M 71.527344 1.585938 "/>
<path style=" stroke:none;fill-rule:evenodd;fill:rgb(78.431373%,63.529412%,26.666667%);fill-opacity:1;" d="M 69.546875 1.820312 C 69.816406 1.828125 69.980469 1.867188 70.042969 1.9375 C 69.484375 2.070312 69.152344 2.226562 69.050781 2.410156 C 68.28125 2.4375 67.621094 2.515625 67.074219 2.644531 C 67.136719 2.558594 67.054688 2.480469 66.824219 2.410156 C 66.421875 2.5625 65.84375 2.640625 65.09375 2.644531 C 66.289062 2.285156 67.773438 2.011719 69.546875 1.820312 Z M 69.546875 1.820312 "/>
<path style=" stroke:none;fill-rule:evenodd;fill:rgb(41.568627%,60%,39.215686%);fill-opacity:1;" d="M 69.050781 2.410156 C 67.691406 2.710938 66.617188 3.066406 65.835938 3.464844 C 65.429688 3.621094 64.851562 3.699219 64.101562 3.703125 C 64.691406 3.285156 65.679688 2.933594 67.074219 2.644531 C 67.621094 2.515625 68.28125 2.4375 69.050781 2.410156 Z M 69.050781 2.410156 "/>
<path style=" stroke:none;fill-rule:evenodd;fill:rgb(90.588235%,62.352941%,9.803922%);fill-opacity:1;" d="M 107.664062 0.527344 C 108.960938 0.597656 110.28125 0.636719 111.621094 0.644531 C 128.628906 1.714844 142.40625 3.90625 152.953125 7.226562 C 154.128906 7.625 155.035156 8.058594 155.675781 8.519531 C 155.871094 8.910156 156.117188 9.304688 156.421875 9.695312 C 157.195312 9.824219 157.855469 9.980469 158.398438 10.164062 C 158.445312 10.671875 158.445312 11.183594 158.398438 11.691406 C 158.523438 11.558594 158.769531 11.441406 159.140625 11.339844 C 160.628906 12.300781 161.867188 13.277344 162.855469 14.277344 C 163.273438 15.96875 163.023438 17.652344 162.113281 19.328125 C 161.617188 19.328125 161.121094 19.328125 160.628906 19.328125 C 160.710938 19.761719 160.628906 20.191406 160.378906 20.621094 C 159.75 21.265625 159.007812 21.894531 158.152344 22.5 C 154.03125 24.773438 147.597656 26.574219 138.847656 27.90625 C 138.433594 27.867188 138.265625 27.789062 138.351562 27.671875 C 139.917969 27.242188 141.238281 26.773438 142.3125 26.261719 C 142.808594 26.261719 143.300781 26.261719 143.796875 26.261719 C 143.75 25.941406 143.914062 25.625 144.292969 25.320312 C 144.292969 25.28125 144.292969 25.242188 144.292969 25.203125 C 144.996094 24.96875 145.328125 24.691406 145.28125 24.382812 C 145.664062 24.292969 145.910156 24.175781 146.023438 24.027344 C 146.273438 23.519531 146.355469 23.011719 146.273438 22.5 C 146.433594 21.382812 146.269531 20.285156 145.777344 19.210938 C 145.777344 18.820312 145.777344 18.429688 145.777344 18.035156 C 146.109375 17.355469 145.613281 16.730469 144.292969 16.15625 C 144.292969 16.117188 144.292969 16.078125 144.292969 16.039062 C 143.613281 15.464844 143.199219 14.878906 143.054688 14.277344 C 142.464844 13.847656 141.722656 13.457031 140.828125 13.101562 C 140.757812 12.894531 140.921875 12.699219 141.324219 12.515625 C 140.011719 12.082031 138.855469 11.652344 137.859375 11.222656 C 136.722656 10.601562 135.566406 9.976562 134.390625 9.339844 C 134.199219 8.832031 133.375 8.398438 131.917969 8.046875 C 130.886719 7.519531 129.734375 7.011719 128.453125 6.519531 C 127.992188 6.179688 127.332031 5.867188 126.472656 5.582031 C 121.519531 3.542969 114.753906 1.9375 106.175781 0.765625 C 106.121094 0.691406 105.957031 0.632812 105.683594 0.585938 C 106.324219 0.53125 106.984375 0.511719 107.664062 0.527344 Z M 107.664062 0.527344 "/>
<path style=" stroke:none;fill-rule:evenodd;fill:rgb(13.72549%,44.705882%,47.843137%);fill-opacity:1;" d="M 105.1875 4.054688 C 98.785156 3.792969 92.351562 3.753906 85.882812 3.9375 C 88.976562 3.753906 92.195312 3.675781 95.535156 3.703125 C 97.925781 3.722656 100.320312 3.742188 102.710938 3.761719 C 103.777344 3.773438 104.601562 3.871094 105.1875 4.054688 Z M 105.1875 4.054688 "/>
<path style=" stroke:none;fill-rule:evenodd;fill:rgb(49.019608%,60%,38.431373%);fill-opacity:1;" d="M 62.121094 4.640625 C 61.625 4.882812 61.128906 5.117188 60.636719 5.347656 C 60.402344 5.015625 60.898438 4.78125 62.121094 4.640625 Z M 62.121094 4.640625 "/>
<path style=" stroke:none;fill-rule:evenodd;fill:rgb(81.176471%,59.607843%,18.431373%);fill-opacity:1;" d="M 84.890625 7.460938 C 85.304688 7.195312 85.304688 6.941406 84.890625 6.699219 C 85.222656 6.621094 85.550781 6.539062 85.882812 6.460938 C 84.867188 6.425781 83.875 6.464844 82.914062 6.578125 C 82.273438 6.792969 81.449219 6.929688 80.4375 6.992188 C 83.925781 6.164062 87.886719 5.480469 92.316406 4.933594 C 92.8125 4.855469 93.308594 4.855469 93.800781 4.933594 C 90.0625 5.640625 87.09375 6.480469 84.890625 7.460938 Z M 84.890625 7.460938 "/>
<path style=" stroke:none;fill-rule:evenodd;fill:rgb(10.588235%,45.882353%,58.431373%);fill-opacity:1;" d="M 126.472656 5.582031 C 127.332031 5.867188 127.992188 6.179688 128.453125 6.519531 C 129.113281 6.835938 129.113281 7.148438 128.453125 7.460938 C 126.472656 7.03125 124.492188 6.597656 122.511719 6.167969 C 123.804688 5.964844 123.640625 5.789062 122.015625 5.640625 C 122.453125 5.480469 122.617188 5.304688 122.511719 5.109375 C 123.996094 5.070312 124.65625 5.230469 124.492188 5.582031 C 125.152344 5.582031 125.8125 5.582031 126.472656 5.582031 Z M 126.472656 5.582031 "/>
<path style=" stroke:none;fill-rule:evenodd;fill:rgb(5.098039%,52.941176%,64.313725%);fill-opacity:1;" d="M 62.121094 7.695312 C 60.964844 8.167969 59.8125 8.636719 58.65625 9.105469 C 57.863281 9.015625 57.535156 8.855469 57.667969 8.636719 C 58.582031 8.667969 59.242188 8.589844 59.648438 8.402344 C 59.359375 8.070312 59.03125 7.757812 58.65625 7.460938 C 58.308594 6.953125 58.886719 6.523438 60.390625 6.167969 C 60.597656 5.710938 61.339844 5.320312 62.617188 4.992188 C 63.078125 5.132812 63.242188 5.289062 63.113281 5.464844 C 63.792969 5.445312 64.453125 5.464844 65.09375 5.523438 C 64.382812 5.578125 63.808594 5.675781 63.359375 5.816406 C 62.992188 5.5625 62.578125 5.542969 62.121094 5.757812 C 62.664062 6.046875 63.160156 6.339844 63.609375 6.640625 C 63.105469 6.9375 62.527344 6.9375 61.875 6.640625 C 61.851562 6.988281 61.9375 7.339844 62.121094 7.695312 Z M 62.121094 7.695312 "/>
<path style=" stroke:none;fill-rule:evenodd;fill:rgb(23.529412%,44.705882%,46.27451%);fill-opacity:1;" d="M 128.453125 6.519531 C 129.734375 7.011719 130.886719 7.519531 131.917969 8.046875 C 132.183594 8.238281 132.347656 8.433594 132.414062 8.636719 C 131.097656 8.25 129.777344 7.859375 128.453125 7.460938 C 129.113281 7.148438 129.113281 6.835938 128.453125 6.519531 Z M 128.453125 6.519531 "/>
<path style=" stroke:none;fill-rule:evenodd;fill:rgb(89.803922%,65.882353%,15.686275%);fill-opacity:1;" d="M 67.074219 2.644531 C 65.679688 2.933594 64.691406 3.285156 64.101562 3.703125 C 63.351562 4 62.691406 4.3125 62.121094 4.640625 C 60.898438 4.78125 60.402344 5.015625 60.636719 5.347656 C 58.824219 5.976562 57.832031 6.679688 57.667969 7.460938 C 55.90625 8.65625 55.082031 9.910156 55.191406 11.222656 C 55.191406 12.476562 55.191406 13.726562 55.191406 14.980469 C 53.777344 14.980469 53.28125 14.84375 53.707031 14.570312 C 52.261719 13.808594 51.605469 13.007812 51.726562 12.160156 C 51.96875 11.597656 52.300781 11.070312 52.71875 10.574219 C 52.328125 10.382812 51.832031 10.207031 51.234375 10.046875 C 50.230469 10.109375 49.242188 10.050781 48.261719 9.871094 C 47.5 9.738281 47.171875 9.5625 47.273438 9.339844 C 46.117188 9.339844 44.960938 9.339844 43.808594 9.339844 C 44.0625 9.578125 44.144531 9.8125 44.054688 10.046875 C 43.582031 9.824219 43.003906 9.785156 42.324219 9.929688 C 46.519531 7.25 53.121094 4.960938 62.121094 3.054688 C 63.066406 2.886719 64.054688 2.75 65.09375 2.644531 C 65.84375 2.640625 66.421875 2.5625 66.824219 2.410156 C 67.054688 2.480469 67.136719 2.558594 67.074219 2.644531 Z M 67.074219 2.644531 "/>
<path style=" stroke:none;fill-rule:evenodd;fill:rgb(90.980392%,64.313725%,11.764706%);fill-opacity:1;" d="M 84.890625 7.460938 C 82.671875 8.652344 81.351562 9.90625 80.933594 11.222656 C 80.53125 11.433594 80.285156 11.667969 80.191406 11.925781 C 79.941406 12.945312 79.859375 13.960938 79.941406 14.980469 C 80.136719 15.765625 80.382812 16.546875 80.683594 17.332031 C 81.035156 17.433594 81.449219 17.511719 81.921875 17.566406 C 81.929688 17.808594 82.097656 18.042969 82.417969 18.269531 C 82.339844 18.667969 82.503906 19.058594 82.914062 19.445312 C 82.738281 19.597656 82.410156 19.695312 81.921875 19.738281 C 82.34375 19.890625 82.921875 19.871094 83.65625 19.679688 C 83.839844 19.914062 84.253906 20.109375 84.890625 20.269531 C 84.890625 20.308594 84.890625 20.347656 84.890625 20.386719 C 85.085938 20.777344 85.332031 21.171875 85.636719 21.5625 C 85.984375 21.664062 86.398438 21.742188 86.871094 21.796875 C 87.636719 22.082031 88.128906 22.394531 88.359375 22.734375 C 88.855469 22.976562 89.351562 23.210938 89.84375 23.441406 C 90.652344 23.902344 91.640625 24.332031 92.8125 24.734375 C 95.542969 25.945312 99.007812 27.042969 103.207031 28.023438 C 104.378906 28.1875 105.535156 28.34375 106.671875 28.492188 C 107.40625 28.679688 108.230469 28.835938 109.148438 28.964844 C 109.203125 29.035156 109.367188 29.09375 109.640625 29.140625 C 107.835938 29.199219 106.019531 29.21875 104.199219 29.199219 C 104.140625 29.125 103.976562 29.066406 103.703125 29.023438 C 102.054688 28.949219 100.40625 28.890625 98.753906 28.847656 C 93.058594 28.523438 88.109375 27.898438 83.902344 26.964844 C 82.757812 26.652344 81.765625 26.300781 80.933594 25.910156 C 79.652344 25.777344 78.496094 25.621094 77.46875 25.4375 C 73.496094 24.417969 70.527344 23.242188 68.558594 21.914062 C 67.609375 21.21875 66.699219 20.511719 65.835938 19.796875 C 65.449219 19.453125 65.53125 19.121094 66.082031 18.800781 C 65.613281 18.742188 65.117188 18.722656 64.597656 18.742188 C 63.679688 16.609375 64.007812 14.496094 65.585938 12.394531 C 66.34375 12.171875 67 11.917969 67.566406 11.632812 C 68.183594 11.578125 68.59375 11.636719 68.804688 11.808594 C 68.96875 11.417969 69.136719 11.027344 69.300781 10.632812 C 70.265625 10.308594 70.84375 9.957031 71.03125 9.578125 C 72.511719 8.953125 74.242188 8.367188 76.230469 7.8125 C 77.746094 7.550781 79.152344 7.273438 80.4375 6.992188 C 81.449219 6.929688 82.273438 6.792969 82.914062 6.578125 C 83.875 6.464844 84.867188 6.425781 85.882812 6.460938 C 85.550781 6.539062 85.222656 6.621094 84.890625 6.699219 C 85.304688 6.941406 85.304688 7.195312 84.890625 7.460938 Z M 84.890625 7.460938 "/>
<path style=" stroke:none;fill-rule:evenodd;fill:rgb(64.313725%,57.647059%,31.372549%);fill-opacity:1;" d="M 131.917969 8.046875 C 133.375 8.398438 134.199219 8.832031 134.390625 9.339844 C 133.984375 9.070312 133.324219 8.835938 132.414062 8.636719 C 132.347656 8.433594 132.183594 8.238281 131.917969 8.046875 Z M 131.917969 8.046875 "/>
<path style=" stroke:none;fill-rule:evenodd;fill:rgb(5.490196%,45.882353%,61.960784%);fill-opacity:1;" d="M 57.667969 7.460938 C 57.996094 7.460938 58.328125 7.460938 58.65625 7.460938 C 59.03125 7.757812 59.359375 8.070312 59.648438 8.402344 C 59.242188 8.589844 58.582031 8.667969 57.667969 8.636719 C 57.535156 8.855469 57.863281 9.015625 58.65625 9.105469 C 58.164062 9.417969 57.667969 9.734375 57.171875 10.046875 C 56.84375 9.816406 56.679688 9.558594 56.675781 9.28125 C 57.347656 8.695312 57.675781 8.089844 57.667969 7.460938 Z M 57.667969 7.460938 "/>
<path style=" stroke:none;fill-rule:evenodd;fill:rgb(24.313725%,46.27451%,45.882353%);fill-opacity:1;" d="M 57.667969 7.460938 C 57.675781 8.089844 57.347656 8.695312 56.675781 9.28125 C 56.679688 9.558594 56.84375 9.816406 57.171875 10.046875 C 56.511719 10.441406 55.851562 10.835938 55.191406 11.222656 C 55.082031 9.910156 55.90625 8.65625 57.667969 7.460938 Z M 57.667969 7.460938 "/>
<path style=" stroke:none;fill-rule:evenodd;fill:rgb(91.372549%,65.098039%,13.333333%);fill-opacity:1;" d="M 55.191406 14.980469 C 55.675781 15.269531 55.839844 15.582031 55.6875 15.921875 C 55.6875 16.117188 55.6875 16.3125 55.6875 16.507812 C 54.292969 16.335938 52.808594 16.21875 51.234375 16.15625 C 51.234375 16.273438 51.234375 16.390625 51.234375 16.507812 C 50.085938 16.371094 48.933594 16.214844 47.765625 16.039062 C 47.285156 16.300781 47.121094 16.578125 47.273438 16.859375 C 46.613281 16.859375 45.953125 16.859375 45.292969 16.859375 C 45.375 17.015625 45.210938 17.152344 44.796875 17.273438 C 42.992188 17.578125 41.011719 17.792969 38.859375 17.917969 C 38.449219 17.574219 38.203125 17.21875 38.113281 16.859375 C 37.363281 18.164062 36.457031 19.375 35.390625 20.503906 C 35.234375 19.722656 35.070312 18.960938 34.898438 18.210938 C 35.007812 17.789062 35.335938 17.378906 35.886719 16.980469 C 35.589844 16.320312 35.589844 15.652344 35.886719 14.980469 C 35.886719 14.902344 35.886719 14.824219 35.886719 14.746094 C 36.425781 14.730469 36.753906 14.652344 36.878906 14.511719 C 37.792969 13.445312 38.785156 12.386719 39.847656 11.339844 C 40.292969 10.824219 41.117188 10.351562 42.324219 9.929688 C 43.003906 9.785156 43.582031 9.824219 44.054688 10.046875 C 44.144531 9.8125 44.0625 9.578125 43.808594 9.339844 C 44.960938 9.339844 46.117188 9.339844 47.273438 9.339844 C 47.171875 9.5625 47.5 9.738281 48.261719 9.871094 C 49.242188 10.050781 50.230469 10.109375 51.234375 10.046875 C 51.832031 10.207031 52.328125 10.382812 52.71875 10.574219 C 52.300781 11.070312 51.96875 11.597656 51.726562 12.160156 C 51.605469 13.007812 52.261719 13.808594 53.707031 14.570312 C 53.28125 14.84375 53.777344 14.980469 55.191406 14.980469 Z M 55.191406 14.980469 "/>
<path style=" stroke:none;fill-rule:evenodd;fill:rgb(83.137255%,60.784314%,16.862745%);fill-opacity:1;" d="M 71.03125 9.578125 C 70.84375 9.957031 70.265625 10.308594 69.300781 10.632812 C 69.136719 11.027344 68.96875 11.417969 68.804688 11.808594 C 68.59375 11.636719 68.183594 11.578125 67.566406 11.632812 C 67 11.917969 66.34375 12.171875 65.585938 12.394531 C 66.515625 11.355469 68.332031 10.414062 71.03125 9.578125 Z M 71.03125 9.578125 "/>
<path style=" stroke:none;fill-rule:evenodd;fill:rgb(49.019608%,35.294118%,15.294118%);fill-opacity:1;" d="M 160.628906 11.339844 C 161.332031 11.574219 161.660156 11.851562 161.617188 12.160156 C 160.914062 11.925781 160.582031 11.648438 160.628906 11.339844 Z M 160.628906 11.339844 "/>
<path style=" stroke:none;fill-rule:evenodd;fill:rgb(78.823529%,56.470588%,17.254902%);fill-opacity:1;" d="M 137.859375 11.222656 C 138.855469 11.652344 140.011719 12.082031 141.324219 12.515625 C 140.921875 12.699219 140.757812 12.894531 140.828125 13.101562 C 139.582031 12.507812 138.59375 11.882812 137.859375 11.222656 Z M 137.859375 11.222656 "/>
<path style=" stroke:none;fill-rule:evenodd;fill:rgb(74.117647%,58.431373%,23.921569%);fill-opacity:1;" d="M 140.828125 13.101562 C 141.722656 13.457031 142.464844 13.847656 143.054688 14.277344 C 143.199219 14.878906 143.613281 15.464844 144.292969 16.039062 C 143.703125 15.855469 143.210938 15.65625 142.808594 15.453125 C 142.460938 14.652344 141.800781 13.867188 140.828125 13.101562 Z M 140.828125 13.101562 "/>
<path style=" stroke:none;fill-rule:evenodd;fill:rgb(50.980392%,36.078431%,14.117647%);fill-opacity:1;" d="M 80.933594 11.222656 C 80.546875 12.472656 80.382812 13.726562 80.4375 14.980469 C 80.273438 14.980469 80.105469 14.980469 79.941406 14.980469 C 79.859375 13.960938 79.941406 12.945312 80.191406 11.925781 C 80.285156 11.667969 80.53125 11.433594 80.933594 11.222656 Z M 80.933594 11.222656 "/>
<path style=" stroke:none;fill-rule:evenodd;fill:rgb(68.627451%,51.764706%,18.823529%);fill-opacity:1;" d="M 39.847656 11.339844 C 38.785156 12.386719 37.792969 13.445312 36.878906 14.511719 C 36.753906 14.652344 36.425781 14.730469 35.886719 14.746094 C 36.679688 13.5625 38 12.425781 39.847656 11.339844 Z M 39.847656 11.339844 "/>
<path style=" stroke:none;fill-rule:evenodd;fill:rgb(79.607843%,58.039216%,18.431373%);fill-opacity:1;" d="M 65.585938 12.394531 C 64.007812 14.496094 63.679688 16.609375 64.597656 18.742188 C 65.117188 18.722656 65.613281 18.742188 66.082031 18.800781 C 65.53125 19.121094 65.449219 19.453125 65.835938 19.796875 C 66.699219 20.511719 67.609375 21.21875 68.558594 21.914062 C 65.800781 20.636719 64.070312 19.265625 63.359375 17.800781 C 63.03125 16.625 63.03125 15.453125 63.359375 14.277344 C 63.652344 13.605469 64.394531 12.980469 65.585938 12.394531 Z M 65.585938 12.394531 "/>
<path style=" stroke:none;fill-rule:evenodd;fill:rgb(76.078431%,54.901961%,16.862745%);fill-opacity:1;" d="M 155.675781 8.519531 C 157.988281 9.375 159.636719 10.316406 160.628906 11.339844 C 160.582031 11.648438 160.914062 11.925781 161.617188 12.160156 C 162.269531 12.738281 162.84375 13.328125 163.351562 13.921875 C 164.144531 16.183594 163.484375 18.414062 161.371094 20.621094 C 160.617188 21.296875 159.546875 21.921875 158.152344 22.5 C 159.007812 21.894531 159.75 21.265625 160.378906 20.621094 C 160.628906 20.191406 160.710938 19.761719 160.628906 19.328125 C 161.121094 19.328125 161.617188 19.328125 162.113281 19.328125 C 163.023438 17.652344 163.273438 15.96875 162.855469 14.277344 C 161.867188 13.277344 160.628906 12.300781 159.140625 11.339844 C 158.769531 11.441406 158.523438 11.558594 158.398438 11.691406 C 158.445312 11.183594 158.445312 10.671875 158.398438 10.164062 C 157.855469 9.980469 157.195312 9.824219 156.421875 9.695312 C 156.117188 9.304688 155.871094 8.910156 155.675781 8.519531 Z M 155.675781 8.519531 "/>
<path style=" stroke:none;fill-rule:evenodd;fill:rgb(74.901961%,62.745098%,26.27451%);fill-opacity:1;" d="M 144.292969 16.15625 C 145.613281 16.730469 146.109375 17.355469 145.777344 18.035156 C 144.914062 17.441406 144.417969 16.8125 144.292969 16.15625 Z M 144.292969 16.15625 "/>
<path style=" stroke:none;fill-rule:evenodd;fill:rgb(77.647059%,56.470588%,19.607843%);fill-opacity:1;" d="M 79.941406 14.980469 C 80.105469 14.980469 80.273438 14.980469 80.4375 14.980469 C 80.839844 15.847656 81.335938 16.707031 81.921875 17.566406 C 81.449219 17.511719 81.035156 17.433594 80.683594 17.332031 C 80.382812 16.546875 80.136719 15.765625 79.941406 14.980469 Z M 79.941406 14.980469 "/>
<path style=" stroke:none;fill-rule:evenodd;fill:rgb(12.156863%,46.27451%,56.862745%);fill-opacity:1;" d="M 142.808594 15.453125 C 143.210938 15.65625 143.703125 15.855469 144.292969 16.039062 C 144.292969 16.078125 144.292969 16.117188 144.292969 16.15625 C 144.417969 16.8125 144.914062 17.441406 145.777344 18.035156 C 145.777344 18.429688 145.777344 18.820312 145.777344 19.210938 C 145.375 19.5 145.125 19.816406 145.035156 20.152344 C 144.53125 19.6875 144.285156 19.21875 144.292969 18.742188 C 143.277344 18.726562 142.449219 18.804688 141.816406 18.976562 C 142.476562 17.808594 142.804688 16.632812 142.808594 15.453125 Z M 142.808594 15.453125 "/>
<path style=" stroke:none;fill-rule:evenodd;fill:rgb(90.196078%,62.352941%,11.764706%);fill-opacity:1;" d="M 55.6875 15.921875 C 56.3125 16.976562 57.136719 18.03125 58.164062 19.09375 C 58.117188 19.40625 58.449219 19.679688 59.152344 19.917969 C 59.40625 20.199219 59.738281 20.472656 60.140625 20.738281 C 60.375 21.460938 60.953125 22.167969 61.875 22.855469 C 62.207031 22.941406 62.621094 22.980469 63.113281 22.972656 C 63.113281 23.011719 63.113281 23.050781 63.113281 23.089844 C 63.113281 23.207031 63.113281 23.324219 63.113281 23.441406 C 62.1875 23.398438 61.445312 23.28125 60.886719 23.089844 C 60.859375 22.824219 60.449219 22.628906 59.648438 22.5 C 59.101562 22.082031 58.609375 21.652344 58.164062 21.207031 C 57.453125 21.054688 56.957031 20.859375 56.675781 20.621094 C 56.511719 20.699219 56.347656 20.777344 56.183594 20.855469 C 56.894531 21.355469 57.554688 21.863281 58.164062 22.382812 C 57.988281 22.644531 57.574219 22.882812 56.925781 23.089844 C 56.722656 22.445312 56.230469 21.820312 55.441406 21.207031 C 52.867188 21.433594 50.144531 21.511719 47.273438 21.445312 C 47.273438 21.796875 47.273438 22.148438 47.273438 22.5 C 44.632812 22.5 41.992188 22.5 39.351562 22.5 C 39.5625 22.996094 39.316406 23.464844 38.609375 23.910156 C 37.988281 23.550781 38.074219 23.179688 38.859375 22.796875 C 38.722656 22.605469 38.3125 22.46875 37.621094 22.382812 C 37.453125 22.03125 37.289062 21.679688 37.125 21.328125 C 37.019531 21.710938 36.773438 22.082031 36.382812 22.441406 C 36.992188 22.640625 37.324219 22.878906 37.371094 23.148438 C 37.140625 24.195312 36.644531 25.234375 35.886719 26.261719 C 35.300781 25.855469 34.96875 25.425781 34.898438 24.96875 C 34.425781 23.207031 34.34375 21.445312 34.648438 19.679688 C 34.742188 19.980469 34.988281 20.253906 35.390625 20.503906 C 36.457031 19.375 37.363281 18.164062 38.113281 16.859375 C 38.203125 17.21875 38.449219 17.574219 38.859375 17.917969 C 41.011719 17.792969 42.992188 17.578125 44.796875 17.273438 C 45.210938 17.152344 45.375 17.015625 45.292969 16.859375 C 45.953125 16.859375 46.613281 16.859375 47.273438 16.859375 C 47.121094 16.578125 47.285156 16.300781 47.765625 16.039062 C 48.933594 16.214844 50.085938 16.371094 51.234375 16.507812 C 51.234375 16.390625 51.234375 16.273438 51.234375 16.15625 C 52.808594 16.21875 54.292969 16.335938 55.6875 16.507812 C 55.6875 16.3125 55.6875 16.117188 55.6875 15.921875 Z M 55.6875 15.921875 "/>
<path style=" stroke:none;fill-rule:evenodd;fill:rgb(80%,57.647059%,18.431373%);fill-opacity:1;" d="M 35.886719 14.980469 C 35.589844 15.652344 35.589844 16.320312 35.886719 16.980469 C 35.335938 17.378906 35.007812 17.789062 34.898438 18.210938 C 35.070312 18.960938 35.234375 19.722656 35.390625 20.503906 C 34.988281 20.253906 34.742188 19.980469 34.648438 19.679688 C 34.34375 21.445312 34.425781 23.207031 34.898438 24.96875 C 34.5 24.796875 34.253906 24.601562 34.15625 24.382812 C 33.203125 21.875 33.203125 19.367188 34.15625 16.859375 C 34.621094 16.214844 35.199219 15.585938 35.886719 14.980469 Z M 35.886719 14.980469 "/>
<path style=" stroke:none;fill-rule:evenodd;fill:rgb(80.392157%,64.313725%,24.313725%);fill-opacity:1;" d="M 82.417969 18.269531 C 82.835938 18.410156 83.164062 18.566406 83.40625 18.742188 C 83.804688 19.257812 84.300781 19.765625 84.890625 20.269531 C 84.253906 20.109375 83.839844 19.914062 83.65625 19.679688 C 82.921875 19.871094 82.34375 19.890625 81.921875 19.738281 C 82.410156 19.695312 82.738281 19.597656 82.914062 19.445312 C 82.503906 19.058594 82.339844 18.667969 82.417969 18.269531 Z M 82.417969 18.269531 "/>
<path style=" stroke:none;fill-rule:evenodd;fill:rgb(51.764706%,36.862745%,9.803922%);fill-opacity:1;" d="M 58.164062 19.09375 C 58.867188 19.332031 59.195312 19.605469 59.152344 19.917969 C 58.449219 19.679688 58.117188 19.40625 58.164062 19.09375 Z M 58.164062 19.09375 "/>
<path style=" stroke:none;fill-rule:evenodd;fill:rgb(90.196078%,60%,10.196078%);fill-opacity:1;" d="M 59.648438 22.5 C 59.269531 22.757812 58.9375 23.03125 58.65625 23.324219 C 59.371094 23.566406 60.359375 23.683594 61.628906 23.675781 C 60.851562 24.003906 60.027344 24.394531 59.152344 24.851562 C 57.832031 24.851562 56.511719 24.851562 55.191406 24.851562 C 55.191406 25.007812 55.191406 25.164062 55.191406 25.320312 C 53.554688 25.296875 52.316406 25.457031 51.480469 25.792969 C 51.238281 25.640625 51.15625 25.484375 51.234375 25.320312 C 49.914062 25.320312 48.59375 25.320312 47.273438 25.320312 C 47.273438 25.832031 47.273438 26.339844 47.273438 26.847656 C 44.632812 26.847656 41.992188 26.847656 39.351562 26.847656 C 39.429688 27.011719 39.347656 27.167969 39.105469 27.320312 C 38.996094 27.097656 38.667969 26.902344 38.113281 26.730469 C 37.871094 27.003906 37.785156 27.277344 37.867188 27.554688 C 37.207031 27.121094 36.546875 26.691406 35.886719 26.261719 C 36.644531 25.234375 37.140625 24.195312 37.371094 23.148438 C 37.324219 22.878906 36.992188 22.640625 36.382812 22.441406 C 36.773438 22.082031 37.019531 21.710938 37.125 21.328125 C 37.289062 21.679688 37.453125 22.03125 37.621094 22.382812 C 38.3125 22.46875 38.722656 22.605469 38.859375 22.796875 C 38.074219 23.179688 37.988281 23.550781 38.609375 23.910156 C 39.316406 23.464844 39.5625 22.996094 39.351562 22.5 C 41.992188 22.5 44.632812 22.5 47.273438 22.5 C 47.273438 22.148438 47.273438 21.796875 47.273438 21.445312 C 50.144531 21.511719 52.867188 21.433594 55.441406 21.207031 C 56.230469 21.820312 56.722656 22.445312 56.925781 23.089844 C 57.574219 22.882812 57.988281 22.644531 58.164062 22.382812 C 57.554688 21.863281 56.894531 21.355469 56.183594 20.855469 C 56.347656 20.777344 56.511719 20.699219 56.675781 20.621094 C 56.957031 20.859375 57.453125 21.054688 58.164062 21.207031 C 58.609375 21.652344 59.101562 22.082031 59.648438 22.5 Z M 59.648438 22.5 "/>
<path style=" stroke:none;fill-rule:evenodd;fill:rgb(72.54902%,63.137255%,29.803922%);fill-opacity:1;" d="M 84.890625 20.386719 C 85.738281 20.835938 86.394531 21.304688 86.871094 21.796875 C 86.398438 21.742188 85.984375 21.664062 85.636719 21.5625 C 85.332031 21.171875 85.085938 20.777344 84.890625 20.386719 Z M 84.890625 20.386719 "/>
<path style=" stroke:none;fill-rule:evenodd;fill:rgb(6.27451%,51.764706%,64.313725%);fill-opacity:1;" d="M 86.871094 20.269531 C 88.699219 20.78125 90.347656 21.328125 91.824219 21.914062 C 91.394531 22.1875 90.898438 22.460938 90.335938 22.734375 C 88.734375 22.429688 88.242188 22.039062 88.851562 21.5625 C 86.898438 21.222656 86.238281 20.792969 86.871094 20.269531 Z M 86.871094 20.269531 "/>
<path style=" stroke:none;fill-rule:evenodd;fill:rgb(19.607843%,46.666667%,51.372549%);fill-opacity:1;" d="M 83.40625 18.742188 C 84.9375 19.191406 86.09375 19.703125 86.871094 20.269531 C 86.238281 20.792969 86.898438 21.222656 88.851562 21.5625 C 88.242188 22.039062 88.734375 22.429688 90.335938 22.734375 C 90.257812 23.011719 90.339844 23.289062 90.585938 23.558594 C 92 23.878906 92.742188 24.269531 92.8125 24.734375 C 91.640625 24.332031 90.652344 23.902344 89.84375 23.441406 C 90.078125 23.109375 89.582031 22.875 88.359375 22.734375 C 88.128906 22.394531 87.636719 22.082031 86.871094 21.796875 C 86.394531 21.304688 85.738281 20.835938 84.890625 20.386719 C 84.890625 20.347656 84.890625 20.308594 84.890625 20.269531 C 84.300781 19.765625 83.804688 19.257812 83.40625 18.742188 Z M 83.40625 18.742188 "/>
<path style=" stroke:none;fill-rule:evenodd;fill:rgb(72.941176%,50.588235%,16.470588%);fill-opacity:1;" d="M 60.140625 20.738281 C 60.964844 21.484375 61.957031 22.230469 63.113281 22.972656 C 62.621094 22.980469 62.207031 22.941406 61.875 22.855469 C 60.953125 22.167969 60.375 21.460938 60.140625 20.738281 Z M 60.140625 20.738281 "/>
<path style=" stroke:none;fill-rule:evenodd;fill:rgb(7.45098%,61.960784%,65.490196%);fill-opacity:1;" d="M 145.777344 19.210938 C 146.269531 20.285156 146.433594 21.382812 146.273438 22.5 C 145.625 23.101562 145.296875 23.730469 145.28125 24.382812 C 144.578125 24.617188 144.246094 24.890625 144.292969 25.203125 C 144.292969 25.242188 144.292969 25.28125 144.292969 25.320312 C 143.960938 25.359375 143.632812 25.398438 143.300781 25.4375 C 143.5625 24.785156 144.054688 24.140625 144.789062 23.5 C 144.621094 23.363281 144.457031 23.226562 144.292969 23.089844 C 143.070312 24.355469 140.59375 25.472656 136.867188 26.4375 C 136.9375 26.527344 137.105469 26.605469 137.363281 26.671875 C 136.378906 26.695312 135.386719 26.675781 134.390625 26.613281 C 134.492188 26.835938 134.164062 27.011719 133.402344 27.140625 C 132.023438 27.382812 130.539062 27.5625 128.949219 27.671875 C 129.03125 27.828125 128.867188 27.964844 128.453125 28.082031 C 126.839844 28.105469 125.273438 28.167969 123.75 28.257812 C 119.417969 28.144531 115.046875 28.105469 110.632812 28.140625 C 110.140625 28.160156 109.8125 28.121094 109.640625 28.023438 C 108.890625 27.878906 108.066406 27.878906 107.167969 28.023438 C 106.617188 27.789062 106.78125 27.574219 107.664062 27.378906 C 106.816406 26.816406 106.320312 26.839844 106.175781 27.4375 C 105.519531 27.4375 104.855469 27.4375 104.199219 27.4375 C 104.417969 27.144531 104.089844 26.910156 103.207031 26.730469 C 102.523438 27.1875 101.945312 27.1875 101.476562 26.730469 C 100.828125 26.582031 100.085938 26.464844 99.246094 26.378906 C 100.515625 26.113281 100.265625 25.917969 98.503906 25.792969 C 98.261719 25.558594 98.175781 25.324219 98.257812 25.085938 C 97.101562 25.085938 95.949219 25.085938 94.792969 25.085938 C 94.777344 24.761719 94.285156 24.488281 93.308594 24.265625 C 94.734375 24.027344 95.3125 23.714844 95.039062 23.324219 C 94.496094 23.507812 93.835938 23.664062 93.058594 23.792969 C 92.976562 23.714844 92.894531 23.636719 92.8125 23.558594 C 93.382812 23.34375 93.710938 23.109375 93.800781 22.855469 C 92.632812 22.832031 91.480469 22.792969 90.335938 22.734375 C 90.898438 22.460938 91.394531 22.1875 91.824219 21.914062 C 93.703125 22.378906 95.519531 22.871094 97.265625 23.382812 C 107.382812 25.746094 118.4375 26.019531 130.433594 24.203125 C 136.800781 22.769531 140.597656 21.023438 141.816406 18.976562 C 142.449219 18.804688 143.277344 18.726562 144.292969 18.742188 C 144.285156 19.21875 144.53125 19.6875 145.035156 20.152344 C 145.125 19.816406 145.375 19.5 145.777344 19.210938 Z M 145.777344 19.210938 "/>
<path style=" stroke:none;fill-rule:evenodd;fill:rgb(47.843137%,58.039216%,35.294118%);fill-opacity:1;" d="M 88.359375 22.734375 C 89.582031 22.875 90.078125 23.109375 89.84375 23.441406 C 89.351562 23.210938 88.855469 22.976562 88.359375 22.734375 Z M 88.359375 22.734375 "/>
<path style=" stroke:none;fill-rule:evenodd;fill:rgb(64.705882%,45.882353%,16.862745%);fill-opacity:1;" d="M 63.113281 23.089844 C 64.644531 23.667969 65.796875 24.292969 66.578125 24.96875 C 65.148438 24.503906 63.992188 23.996094 63.113281 23.441406 C 63.113281 23.324219 63.113281 23.207031 63.113281 23.089844 Z M 63.113281 23.089844 "/>
<path style=" stroke:none;fill-rule:evenodd;fill:rgb(89.019608%,57.254902%,9.019608%);fill-opacity:1;" d="M 59.648438 22.5 C 60.449219 22.628906 60.859375 22.824219 60.886719 23.089844 C 61.445312 23.28125 62.1875 23.398438 63.113281 23.441406 C 63.992188 23.996094 65.148438 24.503906 66.578125 24.96875 C 66.65625 25.128906 66.574219 25.285156 66.328125 25.4375 C 66.175781 25.34375 65.929688 25.265625 65.585938 25.203125 C 65.203125 25.472656 64.707031 25.726562 64.101562 25.96875 C 64.503906 26.167969 65.164062 26.265625 66.082031 26.261719 C 66.15625 26.625 65.910156 26.980469 65.339844 27.320312 C 64.808594 27.226562 64.230469 27.246094 63.609375 27.378906 C 62.984375 27.589844 62.984375 27.804688 63.609375 28.023438 C 64.519531 27.855469 65.34375 27.875 66.082031 28.082031 C 64.101562 28.121094 62.121094 28.160156 60.140625 28.199219 C 57.105469 28.628906 54.136719 29.078125 51.234375 29.550781 C 49.613281 29.667969 47.964844 29.707031 46.28125 29.667969 C 46.28125 29.902344 46.28125 30.140625 46.28125 30.375 C 43.9375 30.363281 42.863281 30.636719 43.066406 31.195312 C 42.5625 31.097656 41.988281 31.058594 41.332031 31.078125 C 40.144531 30.429688 39.15625 29.765625 38.363281 29.082031 C 38.320312 28.570312 38.15625 28.058594 37.867188 27.554688 C 37.785156 27.277344 37.871094 27.003906 38.113281 26.730469 C 38.667969 26.902344 38.996094 27.097656 39.105469 27.320312 C 39.347656 27.167969 39.429688 27.011719 39.351562 26.847656 C 41.992188 26.847656 44.632812 26.847656 47.273438 26.847656 C 47.273438 26.339844 47.273438 25.832031 47.273438 25.320312 C 48.59375 25.320312 49.914062 25.320312 51.234375 25.320312 C 51.15625 25.484375 51.238281 25.640625 51.480469 25.792969 C 52.316406 25.457031 53.554688 25.296875 55.191406 25.320312 C 55.191406 25.164062 55.191406 25.007812 55.191406 24.851562 C 56.511719 24.851562 57.832031 24.851562 59.152344 24.851562 C 60.027344 24.394531 60.851562 24.003906 61.628906 23.675781 C 60.359375 23.683594 59.371094 23.566406 58.65625 23.324219 C 58.9375 23.03125 59.269531 22.757812 59.648438 22.5 Z M 59.648438 22.5 "/>
<path style=" stroke:none;fill-rule:evenodd;fill:rgb(69.411765%,63.529412%,29.411765%);fill-opacity:1;" d="M 146.273438 22.5 C 146.355469 23.011719 146.273438 23.519531 146.023438 24.027344 C 145.910156 24.175781 145.664062 24.292969 145.28125 24.382812 C 145.296875 23.730469 145.625 23.101562 146.273438 22.5 Z M 146.273438 22.5 "/>
<path style=" stroke:none;fill-rule:evenodd;fill:rgb(68.235294%,65.098039%,30.196078%);fill-opacity:1;" d="M 145.28125 24.382812 C 145.328125 24.691406 144.996094 24.96875 144.292969 25.203125 C 144.246094 24.890625 144.578125 24.617188 145.28125 24.382812 Z M 145.28125 24.382812 "/>
<path style=" stroke:none;fill-rule:evenodd;fill:rgb(77.647059%,58.039216%,20.392157%);fill-opacity:1;" d="M 77.46875 25.4375 C 78.496094 25.621094 79.652344 25.777344 80.933594 25.910156 C 81.765625 26.300781 82.757812 26.652344 83.902344 26.964844 C 81.261719 26.574219 79.117188 26.066406 77.46875 25.4375 Z M 77.46875 25.4375 "/>
<path style=" stroke:none;fill-rule:evenodd;fill:rgb(9.019608%,56.862745%,63.529412%);fill-opacity:1;" d="M 143.300781 25.4375 C 142.832031 25.703125 142.503906 25.976562 142.3125 26.261719 C 141.238281 26.773438 139.917969 27.242188 138.351562 27.671875 C 137.417969 27.800781 136.59375 27.957031 135.878906 28.140625 C 135.847656 28.011719 135.683594 27.894531 135.382812 27.789062 C 135.992188 27.644531 136.570312 27.488281 137.113281 27.320312 C 137.320312 27.371094 137.566406 27.410156 137.859375 27.4375 C 138.316406 27.296875 138.480469 27.140625 138.351562 26.964844 C 139.835938 27.003906 140.496094 26.847656 140.332031 26.496094 C 138.742188 26.5625 137.257812 26.699219 135.878906 26.90625 C 135.441406 27.066406 135.277344 27.242188 135.382812 27.4375 C 134.21875 27.476562 133.0625 27.535156 131.917969 27.613281 C 130.691406 27.8125 130.03125 28.046875 129.9375 28.316406 C 127.582031 28.242188 125.273438 28.320312 123.007812 28.550781 C 120.519531 28.667969 118.128906 28.609375 115.828125 28.375 C 114.449219 28.496094 113.046875 28.515625 111.621094 28.433594 C 111.1875 28.351562 110.855469 28.253906 110.632812 28.140625 C 115.046875 28.105469 119.417969 28.144531 123.75 28.257812 C 125.273438 28.167969 126.839844 28.105469 128.453125 28.082031 C 128.867188 27.964844 129.03125 27.828125 128.949219 27.671875 C 130.539062 27.5625 132.023438 27.382812 133.402344 27.140625 C 134.164062 27.011719 134.492188 26.835938 134.390625 26.613281 C 135.386719 26.675781 136.378906 26.695312 137.363281 26.671875 C 137.105469 26.605469 136.9375 26.527344 136.867188 26.4375 C 140.59375 25.472656 143.070312 24.355469 144.292969 23.089844 C 144.457031 23.226562 144.621094 23.363281 144.789062 23.5 C 144.054688 24.140625 143.5625 24.785156 143.300781 25.4375 Z M 143.300781 25.4375 "/>
<path style=" stroke:none;fill-rule:evenodd;fill:rgb(71.764706%,62.745098%,27.45098%);fill-opacity:1;" d="M 144.292969 25.320312 C 143.914062 25.625 143.75 25.941406 143.796875 26.261719 C 143.300781 26.261719 142.808594 26.261719 142.3125 26.261719 C 142.503906 25.976562 142.832031 25.703125 143.300781 25.4375 C 143.632812 25.398438 143.960938 25.359375 144.292969 25.320312 Z M 144.292969 25.320312 "/>
<path style=" stroke:none;fill-rule:evenodd;fill:rgb(77.254902%,54.509804%,17.254902%);fill-opacity:1;" d="M 35.886719 26.261719 C 36.546875 26.691406 37.207031 27.121094 37.867188 27.554688 C 38.15625 28.058594 38.320312 28.570312 38.363281 29.082031 C 37.152344 28.175781 36.324219 27.234375 35.886719 26.261719 Z M 35.886719 26.261719 "/>
<path style=" stroke:none;fill-rule:evenodd;fill:rgb(87.058824%,54.901961%,8.627451%);fill-opacity:1;" d="M 66.578125 24.96875 C 70.945312 26.808594 75.070312 28.6875 78.953125 30.609375 C 77.566406 30.554688 76.90625 30.359375 76.972656 30.019531 C 76.476562 30.019531 75.984375 30.019531 75.488281 30.019531 C 75.507812 29.285156 74.847656 29.246094 73.507812 29.902344 C 73.097656 30.007812 72.605469 30.046875 72.023438 30.019531 C 72.449219 29.683594 73.109375 29.371094 74.003906 29.082031 C 73.410156 28.777344 72.914062 28.464844 72.515625 28.140625 C 71.734375 28.433594 71.238281 28.746094 71.03125 29.082031 C 65.734375 29.457031 60.949219 30.0625 56.675781 30.902344 C 53.679688 31.121094 50.710938 31.375 47.765625 31.667969 C 46.121094 32.054688 45.296875 32.527344 45.292969 33.078125 C 43.574219 32.457031 42.253906 31.789062 41.332031 31.078125 C 41.988281 31.058594 42.5625 31.097656 43.066406 31.195312 C 42.863281 30.636719 43.9375 30.363281 46.28125 30.375 C 46.28125 30.140625 46.28125 29.902344 46.28125 29.667969 C 47.964844 29.707031 49.613281 29.667969 51.234375 29.550781 C 54.136719 29.078125 57.105469 28.628906 60.140625 28.199219 C 62.121094 28.160156 64.101562 28.121094 66.082031 28.082031 C 65.34375 27.875 64.519531 27.855469 63.609375 28.023438 C 62.984375 27.804688 62.984375 27.589844 63.609375 27.378906 C 64.230469 27.246094 64.808594 27.226562 65.339844 27.320312 C 65.910156 26.980469 66.15625 26.625 66.082031 26.261719 C 65.164062 26.265625 64.503906 26.167969 64.101562 25.96875 C 64.707031 25.726562 65.203125 25.472656 65.585938 25.203125 C 65.929688 25.265625 66.175781 25.34375 66.328125 25.4375 C 66.574219 25.285156 66.65625 25.128906 66.578125 24.96875 Z M 66.578125 24.96875 "/>
<path style=" stroke:none;fill-rule:evenodd;fill:rgb(67.058824%,56.078431%,25.882353%);fill-opacity:1;" d="M 138.351562 27.671875 C 138.265625 27.789062 138.433594 27.867188 138.847656 27.90625 C 138.046875 28.121094 137.054688 28.277344 135.878906 28.375 C 135.878906 28.296875 135.878906 28.21875 135.878906 28.140625 C 136.59375 27.957031 137.417969 27.800781 138.351562 27.671875 Z M 138.351562 27.671875 "/>
<path style=" stroke:none;fill-rule:evenodd;fill:rgb(12.54902%,54.901961%,61.960784%);fill-opacity:1;" d="M 90.335938 22.734375 C 91.480469 22.792969 92.632812 22.832031 93.800781 22.855469 C 93.710938 23.109375 93.382812 23.34375 92.8125 23.558594 C 92.894531 23.636719 92.976562 23.714844 93.058594 23.792969 C 93.835938 23.664062 94.496094 23.507812 95.039062 23.324219 C 95.3125 23.714844 94.734375 24.027344 93.308594 24.265625 C 94.285156 24.488281 94.777344 24.761719 94.792969 25.085938 C 95.949219 25.085938 97.101562 25.085938 98.257812 25.085938 C 98.175781 25.324219 98.261719 25.558594 98.503906 25.792969 C 100.265625 25.917969 100.515625 26.113281 99.246094 26.378906 C 100.085938 26.464844 100.828125 26.582031 101.476562 26.730469 C 101.945312 27.1875 102.523438 27.1875 103.207031 26.730469 C 104.089844 26.910156 104.417969 27.144531 104.199219 27.4375 C 104.855469 27.4375 105.519531 27.4375 106.175781 27.4375 C 106.320312 26.839844 106.816406 26.816406 107.664062 27.378906 C 106.78125 27.574219 106.617188 27.789062 107.167969 28.023438 C 108.066406 27.878906 108.890625 27.878906 109.640625 28.023438 C 108.109375 28.011719 107.945312 28.074219 109.148438 28.199219 C 108.15625 28.238281 107.167969 28.277344 106.175781 28.316406 C 106.453125 28.363281 106.617188 28.421875 106.671875 28.492188 C 105.535156 28.34375 104.378906 28.1875 103.207031 28.023438 C 99.007812 27.042969 95.542969 25.945312 92.8125 24.734375 C 92.742188 24.269531 92 23.878906 90.585938 23.558594 C 90.339844 23.289062 90.257812 23.011719 90.335938 22.734375 Z M 90.335938 22.734375 "/>
<path style=" stroke:none;fill-rule:evenodd;fill:rgb(7.45098%,49.411765%,61.568627%);fill-opacity:1;" d="M 135.382812 27.789062 C 134.652344 27.757812 133.992188 27.796875 133.402344 27.90625 C 132.632812 28.148438 131.640625 28.324219 130.433594 28.433594 C 126.753906 28.503906 123.207031 28.679688 119.789062 28.964844 C 119.113281 28.921875 118.535156 28.84375 118.058594 28.730469 C 117.585938 28.910156 117.421875 29.105469 117.5625 29.316406 C 119.246094 29.355469 120.894531 29.316406 122.511719 29.199219 C 121.953125 28.960938 122.199219 28.921875 123.253906 29.082031 C 125.613281 28.96875 128.007812 28.871094 130.433594 28.789062 C 132.128906 28.507812 133.945312 28.292969 135.878906 28.140625 C 135.878906 28.21875 135.878906 28.296875 135.878906 28.375 C 130.304688 29.210938 124.199219 29.605469 117.5625 29.550781 C 115.847656 29.253906 113.867188 29.097656 111.621094 29.082031 C 110.820312 29.019531 109.996094 28.980469 109.148438 28.964844 C 108.230469 28.835938 107.40625 28.679688 106.671875 28.492188 C 106.617188 28.421875 106.453125 28.363281 106.175781 28.316406 C 107.167969 28.277344 108.15625 28.238281 109.148438 28.199219 C 107.945312 28.074219 108.109375 28.011719 109.640625 28.023438 C 109.8125 28.121094 110.140625 28.160156 110.632812 28.140625 C 110.855469 28.253906 111.1875 28.351562 111.621094 28.433594 C 113.046875 28.515625 114.449219 28.496094 115.828125 28.375 C 118.128906 28.609375 120.519531 28.667969 123.007812 28.550781 C 125.273438 28.320312 127.582031 28.242188 129.9375 28.316406 C 130.03125 28.046875 130.691406 27.8125 131.917969 27.613281 C 133.0625 27.535156 134.21875 27.476562 135.382812 27.4375 C 135.277344 27.242188 135.441406 27.066406 135.878906 26.90625 C 137.257812 26.699219 138.742188 26.5625 140.332031 26.496094 C 140.496094 26.847656 139.835938 27.003906 138.351562 26.964844 C 138.480469 27.140625 138.316406 27.296875 137.859375 27.4375 C 137.566406 27.410156 137.320312 27.371094 137.113281 27.320312 C 136.570312 27.488281 135.992188 27.644531 135.382812 27.789062 Z M 135.382812 27.789062 "/>
<path style=" stroke:none;fill-rule:evenodd;fill:rgb(1.960784%,48.235294%,65.098039%);fill-opacity:1;" d="M 135.382812 27.789062 C 135.683594 27.894531 135.847656 28.011719 135.878906 28.140625 C 133.945312 28.292969 132.128906 28.507812 130.433594 28.789062 C 128.007812 28.871094 125.613281 28.96875 123.253906 29.082031 C 122.199219 28.921875 121.953125 28.960938 122.511719 29.199219 C 120.894531 29.316406 119.246094 29.355469 117.5625 29.316406 C 117.421875 29.105469 117.585938 28.910156 118.058594 28.730469 C 118.535156 28.84375 119.113281 28.921875 119.789062 28.964844 C 123.207031 28.679688 126.753906 28.503906 130.433594 28.433594 C 131.640625 28.324219 132.632812 28.148438 133.402344 27.90625 C 133.992188 27.796875 134.652344 27.757812 135.382812 27.789062 Z M 135.382812 27.789062 "/>
<path style=" stroke:none;fill-rule:evenodd;fill:rgb(71.764706%,52.54902%,21.176471%);fill-opacity:1;" d="M 98.753906 28.847656 C 100.40625 28.890625 102.054688 28.949219 103.703125 29.023438 C 103.976562 29.066406 104.140625 29.125 104.199219 29.199219 C 102.144531 29.242188 100.328125 29.125 98.753906 28.847656 Z M 98.753906 28.847656 "/>
<path style=" stroke:none;fill-rule:evenodd;fill:rgb(74.509804%,56.078431%,20.784314%);fill-opacity:1;" d="M 109.148438 28.964844 C 109.996094 28.980469 110.820312 29.019531 111.621094 29.082031 C 112.546875 29.257812 113.535156 29.414062 114.59375 29.550781 C 110.992188 29.550781 107.523438 29.433594 104.199219 29.199219 C 106.019531 29.21875 107.835938 29.199219 109.640625 29.140625 C 109.367188 29.09375 109.203125 29.035156 109.148438 28.964844 Z M 109.148438 28.964844 "/>
<path style=" stroke:none;fill-rule:evenodd;fill:rgb(30.980392%,47.843137%,45.098039%);fill-opacity:1;" d="M 111.621094 29.082031 C 113.867188 29.097656 115.847656 29.253906 117.5625 29.550781 C 116.574219 29.550781 115.582031 29.550781 114.59375 29.550781 C 113.535156 29.414062 112.546875 29.257812 111.621094 29.082031 Z M 111.621094 29.082031 "/>
<path style=" stroke:none;fill-rule:evenodd;fill:rgb(77.254902%,56.470588%,17.254902%);fill-opacity:1;" d="M 161.617188 33.195312 C 160.792969 33.195312 159.96875 33.195312 159.140625 33.195312 C 159.140625 33.703125 159.140625 34.210938 159.140625 34.722656 C 158.65625 34.195312 158.488281 33.648438 158.648438 33.078125 C 159.308594 33.078125 159.96875 33.078125 160.628906 33.078125 C 160.628906 32.917969 160.628906 32.761719 160.628906 32.605469 C 159.972656 32.625 159.394531 32.585938 158.894531 32.488281 C 158.566406 32.175781 158.566406 31.863281 158.894531 31.546875 C 159.589844 31.351562 160.496094 31.273438 161.617188 31.3125 C 161.617188 31.195312 161.617188 31.078125 161.617188 30.960938 C 156.785156 30.816406 154.476562 31.324219 154.6875 32.488281 C 154.191406 32.488281 153.699219 32.488281 153.203125 32.488281 C 153.203125 32.722656 153.203125 32.957031 153.203125 33.195312 C 153.039062 33.195312 152.871094 33.195312 152.707031 33.195312 C 152.707031 32.917969 152.707031 32.644531 152.707031 32.371094 C 153.203125 32.371094 153.699219 32.371094 154.191406 32.371094 C 153.964844 31.890625 154.296875 31.441406 155.183594 31.019531 C 157.65625 30.746094 160.292969 30.648438 163.101562 30.726562 C 163.363281 31.351562 162.207031 31.625 159.636719 31.546875 C 159.636719 31.824219 159.636719 32.097656 159.636719 32.371094 C 160.296875 32.371094 160.957031 32.371094 161.617188 32.371094 C 161.617188 32.644531 161.617188 32.917969 161.617188 33.195312 Z M 161.617188 33.195312 "/>
<path style=" stroke:none;fill-rule:evenodd;fill:rgb(87.45098%,52.54902%,6.666667%);fill-opacity:1;" d="M 78.953125 30.609375 C 80.472656 31.230469 81.464844 31.894531 81.921875 32.605469 C 81.4375 32.457031 80.941406 32.300781 80.4375 32.136719 C 79.792969 32.207031 79.382812 32.324219 79.199219 32.488281 C 79.035156 32.332031 78.871094 32.175781 78.703125 32.019531 C 76.96875 32.144531 75.238281 32.285156 73.507812 32.429688 C 73.175781 32.546875 72.847656 32.664062 72.515625 32.78125 C 69.386719 32.839844 66.25 32.859375 63.113281 32.839844 C 63.269531 33.203125 63.105469 33.554688 62.617188 33.898438 C 59.9375 34.152344 57.378906 34.464844 54.945312 34.839844 C 54.445312 34.742188 53.867188 34.703125 53.210938 34.722656 C 53.117188 35.054688 52.785156 35.367188 52.222656 35.660156 C 49.417969 34.878906 47.109375 34.015625 45.292969 33.078125 C 45.296875 32.527344 46.121094 32.054688 47.765625 31.667969 C 50.710938 31.375 53.679688 31.121094 56.675781 30.902344 C 60.949219 30.0625 65.734375 29.457031 71.03125 29.082031 C 71.238281 28.746094 71.734375 28.433594 72.515625 28.140625 C 72.914062 28.464844 73.410156 28.777344 74.003906 29.082031 C 73.109375 29.371094 72.449219 29.683594 72.023438 30.019531 C 72.605469 30.046875 73.097656 30.007812 73.507812 29.902344 C 74.847656 29.246094 75.507812 29.285156 75.488281 30.019531 C 75.984375 30.019531 76.476562 30.019531 76.972656 30.019531 C 76.90625 30.359375 77.566406 30.554688 78.953125 30.609375 Z M 78.953125 30.609375 "/>
<path style=" stroke:none;fill-rule:evenodd;fill:rgb(12.156863%,57.647059%,60.784314%);fill-opacity:1;" d="M 122.511719 30.726562 C 124.738281 31.316406 124.328125 31.785156 121.273438 32.136719 C 117.992188 31.878906 117.25 31.410156 119.046875 30.726562 C 120.203125 30.570312 121.359375 30.570312 122.511719 30.726562 Z M 122.511719 30.726562 "/>
<path style=" stroke:none;fill-rule:evenodd;fill:rgb(90.196078%,62.352941%,10.588235%);fill-opacity:1;" d="M 159.140625 34.722656 C 159.308594 34.722656 159.472656 34.722656 159.636719 34.722656 C 159.96875 34.722656 160.296875 34.722656 160.628906 34.722656 C 160.628906 34.957031 160.628906 35.191406 160.628906 35.425781 C 158.152344 35.425781 155.675781 35.425781 153.203125 35.425781 C 153.117188 35.175781 153.28125 34.941406 153.699219 34.722656 C 154.027344 34.488281 154.191406 34.234375 154.191406 33.957031 C 154.175781 33.652344 153.847656 33.394531 153.203125 33.195312 C 153.203125 32.957031 153.203125 32.722656 153.203125 32.488281 C 153.699219 32.488281 154.191406 32.488281 154.6875 32.488281 C 154.476562 31.324219 156.785156 30.816406 161.617188 30.960938 C 161.617188 31.078125 161.617188 31.195312 161.617188 31.3125 C 160.496094 31.273438 159.589844 31.351562 158.894531 31.546875 C 158.566406 31.863281 158.566406 32.175781 158.894531 32.488281 C 159.394531 32.585938 159.972656 32.625 160.628906 32.605469 C 160.628906 32.761719 160.628906 32.917969 160.628906 33.078125 C 159.96875 33.078125 159.308594 33.078125 158.648438 33.078125 C 158.488281 33.648438 158.65625 34.195312 159.140625 34.722656 Z M 159.140625 34.722656 "/>
<path style=" stroke:none;fill-rule:evenodd;fill:rgb(87.058824%,50.196078%,5.098039%);fill-opacity:1;" d="M 81.921875 32.605469 C 81.921875 32.761719 81.921875 32.917969 81.921875 33.078125 C 81.363281 33.289062 81.035156 33.523438 80.933594 33.78125 C 80.4375 33.78125 79.941406 33.78125 79.449219 33.78125 C 79.367188 33.425781 79.699219 33.09375 80.4375 32.78125 C 80.105469 32.546875 79.777344 32.546875 79.449219 32.78125 C 78.855469 33.769531 79.019531 34.75 79.941406 35.71875 C 79.695312 35.777344 79.449219 35.835938 79.199219 35.894531 C 78.953125 35.507812 78.871094 35.113281 78.953125 34.722656 C 77.632812 34.722656 76.3125 34.722656 74.992188 34.722656 C 74.992188 34.839844 74.992188 34.957031 74.992188 35.074219 C 73.597656 35.0625 72.609375 35.199219 72.023438 35.484375 C 72.222656 35.597656 72.554688 35.675781 73.011719 35.71875 C 72.386719 35.757812 71.808594 35.816406 71.28125 35.894531 C 70.578125 35.675781 69.671875 35.617188 68.558594 35.71875 C 67.09375 35.941406 65.523438 36.117188 63.855469 36.25 C 62.496094 36.085938 61.257812 35.886719 60.140625 35.660156 C 59.8125 35.699219 59.484375 35.738281 59.152344 35.777344 C 59.828125 35.949219 60.570312 36.105469 61.378906 36.25 C 61.617188 36.359375 61.703125 36.476562 61.628906 36.601562 C 60.800781 36.601562 59.976562 36.601562 59.152344 36.601562 C 59.382812 36.128906 58.476562 35.894531 56.429688 35.894531 C 55.773438 35.925781 55.277344 36.003906 54.945312 36.132812 C 53.9375 35.988281 53.03125 35.832031 52.222656 35.660156 C 52.785156 35.367188 53.117188 35.054688 53.210938 34.722656 C 53.867188 34.703125 54.445312 34.742188 54.945312 34.839844 C 57.378906 34.464844 59.9375 34.152344 62.617188 33.898438 C 63.105469 33.554688 63.269531 33.203125 63.113281 32.839844 C 66.25 32.859375 69.386719 32.839844 72.515625 32.78125 C 72.847656 32.664062 73.175781 32.546875 73.507812 32.429688 C 75.238281 32.285156 76.96875 32.144531 78.703125 32.019531 C 78.871094 32.175781 79.035156 32.332031 79.199219 32.488281 C 79.382812 32.324219 79.792969 32.207031 80.4375 32.136719 C 80.941406 32.300781 81.4375 32.457031 81.921875 32.605469 Z M 81.921875 32.605469 "/>
<path style=" stroke:none;fill-rule:evenodd;fill:rgb(9.803922%,59.607843%,62.745098%);fill-opacity:1;" d="M 151.222656 33.195312 C 150.234375 33.195312 149.242188 33.195312 148.253906 33.195312 C 148.09375 33.726562 148.261719 34.234375 148.746094 34.722656 C 149.328125 34.863281 149.988281 34.863281 150.726562 34.722656 C 151.210938 35.023438 151.378906 35.339844 151.222656 35.660156 C 148.796875 35.714844 146.488281 35.636719 144.292969 35.425781 C 143.839844 34.6875 143.671875 33.945312 143.796875 33.195312 C 143.300781 33.195312 142.808594 33.195312 142.3125 33.195312 C 142 32.164062 143.980469 31.613281 148.253906 31.546875 C 148.253906 31.824219 148.253906 32.097656 148.253906 32.371094 C 149.242188 32.371094 150.234375 32.371094 151.222656 32.371094 C 151.222656 32.644531 151.222656 32.917969 151.222656 33.195312 Z M 151.222656 33.195312 "/>
<path style=" stroke:none;fill-rule:evenodd;fill:rgb(3.529412%,9.019608%,10.980392%);fill-opacity:1;" d="M 114.097656 32.253906 C 113.476562 32.410156 112.816406 32.566406 112.117188 32.722656 C 111.679688 32.625 111.515625 32.507812 111.621094 32.371094 C 109.972656 32.371094 108.324219 32.371094 106.671875 32.371094 C 106.953125 32.898438 107.28125 33.429688 107.664062 33.957031 C 107.28125 34.488281 106.953125 35.015625 106.671875 35.542969 C 109.148438 35.542969 111.621094 35.542969 114.097656 35.542969 C 112.789062 35.621094 111.386719 35.660156 109.890625 35.660156 C 108.226562 35.648438 106.65625 35.570312 105.1875 35.425781 C 102.246094 35.570312 99.273438 35.6875 96.277344 35.777344 C 96.867188 35.886719 97.527344 35.925781 98.257812 35.894531 C 98.449219 36.253906 98.121094 36.566406 97.265625 36.835938 C 97.265625 36.5625 97.265625 36.289062 97.265625 36.015625 C 96.773438 36.015625 96.277344 36.015625 95.78125 36.015625 C 95.78125 35.816406 95.78125 35.621094 95.78125 35.425781 C 103.5 35.75 106.46875 35.003906 104.691406 33.195312 C 105.300781 33.117188 105.628906 32.980469 105.683594 32.78125 C 105.652344 32.613281 105.488281 32.457031 105.1875 32.3125 C 107.511719 32.28125 109.820312 32.222656 112.117188 32.136719 C 112.785156 32.175781 113.445312 32.214844 114.097656 32.253906 Z M 114.097656 32.253906 "/>
<path style=" stroke:none;fill-rule:evenodd;fill:rgb(2.352941%,5.882353%,7.058824%);fill-opacity:1;" d="M 119.046875 30.726562 C 117.25 31.410156 117.992188 31.878906 121.273438 32.136719 C 124.328125 31.785156 124.738281 31.316406 122.511719 30.726562 C 124.503906 30.84375 125.410156 31.160156 125.234375 31.667969 C 125.820312 31.992188 126.730469 32.109375 127.957031 32.019531 C 129.085938 32.101562 130.238281 32.160156 131.421875 32.195312 C 131.699219 32.238281 131.863281 32.296875 131.917969 32.371094 C 130.101562 32.371094 128.289062 32.371094 126.472656 32.371094 C 126.148438 32.503906 125.984375 32.660156 125.976562 32.839844 C 126.738281 33.457031 127.070312 34.082031 126.96875 34.722656 C 126.054688 34.929688 125.726562 35.203125 125.976562 35.542969 C 125.648438 35.542969 125.316406 35.542969 124.988281 35.542969 C 121.433594 35.679688 117.804688 35.679688 114.097656 35.542969 C 114.097656 35.269531 114.097656 34.996094 114.097656 34.722656 C 113.601562 34.722656 113.109375 34.722656 112.613281 34.722656 C 112.53125 34.367188 112.613281 34.015625 112.859375 33.664062 C 113.605469 33.378906 114.679688 33.261719 116.078125 33.3125 C 116.078125 32.957031 116.078125 32.605469 116.078125 32.253906 C 115.582031 32.253906 115.085938 32.253906 114.59375 32.253906 C 115.289062 32.015625 116.28125 31.898438 117.5625 31.902344 C 117.425781 31.59375 117.09375 31.300781 116.574219 31.019531 C 117.144531 30.796875 117.96875 30.699219 119.046875 30.726562 Z M 119.046875 30.726562 "/>
<path style=" stroke:none;fill-rule:evenodd;fill:rgb(14.117647%,38.823529%,42.352941%);fill-opacity:1;" d="M 123.996094 34.722656 C 123.507812 34 123.34375 33.253906 123.503906 32.488281 C 121.6875 32.488281 119.871094 32.488281 118.058594 32.488281 C 118.058594 32.722656 118.058594 32.957031 118.058594 33.195312 C 117.578125 32.945312 117.414062 32.671875 117.5625 32.371094 C 119.707031 32.371094 121.851562 32.371094 123.996094 32.371094 C 123.996094 33.15625 123.996094 33.9375 123.996094 34.722656 Z M 123.996094 34.722656 "/>
<path style=" stroke:none;fill-rule:evenodd;fill:rgb(46.666667%,27.058824%,8.627451%);fill-opacity:1;" d="M 81.921875 32.605469 C 82.628906 32.84375 82.957031 33.117188 82.914062 33.429688 C 82.582031 33.3125 82.253906 33.195312 81.921875 33.078125 C 81.921875 32.917969 81.921875 32.761719 81.921875 32.605469 Z M 81.921875 32.605469 "/>
<path style=" stroke:none;fill-rule:evenodd;fill:rgb(9.803922%,60.784314%,63.921569%);fill-opacity:1;" d="M 104.691406 33.195312 C 106.46875 35.003906 103.5 35.75 95.78125 35.425781 C 95.78125 35.621094 95.78125 35.816406 95.78125 36.015625 C 96.277344 36.015625 96.773438 36.015625 97.265625 36.015625 C 97.265625 36.289062 97.265625 36.5625 97.265625 36.835938 C 94.628906 36.835938 91.988281 36.835938 89.347656 36.835938 C 89.8125 36.097656 90.144531 35.355469 90.335938 34.605469 C 90.144531 33.851562 89.8125 33.109375 89.347656 32.371094 C 91.734375 32.304688 93.960938 32.382812 96.03125 32.605469 C 99.703125 32.164062 102.59375 32.359375 104.691406 33.195312 Z M 104.691406 33.195312 "/>
<path style=" stroke:none;fill-rule:evenodd;fill:rgb(2.745098%,6.666667%,7.843137%);fill-opacity:1;" d="M 96.773438 33.195312 C 99.542969 33.308594 100.453125 33.703125 99.496094 34.367188 C 98.339844 34.996094 97.183594 34.996094 96.03125 34.367188 C 95.609375 33.949219 95.859375 33.558594 96.773438 33.195312 Z M 96.773438 33.195312 "/>
<path style=" stroke:none;fill-rule:evenodd;fill:rgb(10.588235%,60.784314%,63.529412%);fill-opacity:1;" d="M 140.828125 32.957031 C 140.828125 33.546875 140.828125 34.132812 140.828125 34.722656 C 141.324219 34.722656 141.816406 34.722656 142.3125 34.722656 C 142.3125 34.996094 142.3125 35.269531 142.3125 35.542969 C 140.167969 35.542969 138.023438 35.542969 135.878906 35.542969 C 135.960938 34.835938 135.878906 34.132812 135.628906 33.429688 C 134.640625 33.273438 133.648438 33.273438 132.660156 33.429688 C 132.414062 33.859375 132.332031 34.289062 132.414062 34.722656 C 133.074219 34.722656 133.734375 34.722656 134.390625 34.722656 C 134.390625 34.996094 134.390625 35.269531 134.390625 35.542969 C 131.585938 35.542969 128.78125 35.542969 125.976562 35.542969 C 125.726562 35.203125 126.054688 34.929688 126.96875 34.722656 C 127.296875 34.488281 127.460938 34.234375 127.460938 33.957031 C 127.082031 33.429688 126.753906 32.898438 126.472656 32.371094 C 128.289062 32.371094 130.101562 32.371094 131.917969 32.371094 C 131.808594 32.507812 131.972656 32.625 132.414062 32.722656 C 135.554688 32.066406 138.359375 32.144531 140.828125 32.957031 Z M 140.828125 32.957031 "/>
<path style=" stroke:none;fill-rule:evenodd;fill:rgb(0.784314%,19.607843%,20.784314%);fill-opacity:1;" d="M 151.222656 33.195312 C 150.519531 33.304688 149.695312 33.34375 148.746094 33.3125 C 148.746094 33.78125 148.746094 34.25 148.746094 34.722656 C 148.261719 34.234375 148.09375 33.726562 148.253906 33.195312 C 149.242188 33.195312 150.234375 33.195312 151.222656 33.195312 Z M 151.222656 33.195312 "/>
<path style=" stroke:none;fill-rule:evenodd;fill:rgb(57.647059%,40.392157%,19.215686%);fill-opacity:1;" d="M 161.617188 33.195312 C 161.089844 33.304688 160.429688 33.34375 159.636719 33.3125 C 159.636719 33.78125 159.636719 34.25 159.636719 34.722656 C 159.472656 34.722656 159.308594 34.722656 159.140625 34.722656 C 159.140625 34.210938 159.140625 33.703125 159.140625 33.195312 C 159.96875 33.195312 160.792969 33.195312 161.617188 33.195312 Z M 161.617188 33.195312 "/>
<path style=" stroke:none;fill-rule:evenodd;fill:rgb(26.27451%,16.078431%,1.568627%);fill-opacity:1;" d="M 152.707031 33.195312 C 152.871094 33.195312 153.039062 33.195312 153.203125 33.195312 C 153.847656 33.394531 154.175781 33.652344 154.191406 33.957031 C 154.191406 34.234375 154.027344 34.488281 153.699219 34.722656 C 153.945312 34.175781 153.617188 33.664062 152.707031 33.195312 Z M 152.707031 33.195312 "/>
<path style=" stroke:none;fill-rule:evenodd;fill:rgb(3.921569%,26.27451%,28.235294%);fill-opacity:1;" d="M 126.472656 32.371094 C 126.753906 32.898438 127.082031 33.429688 127.460938 33.957031 C 127.460938 34.234375 127.296875 34.488281 126.96875 34.722656 C 127.070312 34.082031 126.738281 33.457031 125.976562 32.839844 C 125.984375 32.660156 126.148438 32.503906 126.472656 32.371094 Z M 126.472656 32.371094 "/>
<path style=" stroke:none;fill-rule:evenodd;fill:rgb(9.411765%,61.960784%,64.705882%);fill-opacity:1;" d="M 123.996094 34.722656 C 124.910156 34.929688 125.238281 35.203125 124.988281 35.542969 C 122.511719 35.542969 120.039062 35.542969 117.5625 35.542969 C 117.5625 35.269531 117.5625 34.996094 117.5625 34.722656 C 118.058594 34.722656 118.550781 34.722656 119.046875 34.722656 C 119.34375 34.15625 119.011719 33.648438 118.058594 33.195312 C 118.058594 32.957031 118.058594 32.722656 118.058594 32.488281 C 119.871094 32.488281 121.6875 32.488281 123.503906 32.488281 C 123.34375 33.253906 123.507812 34 123.996094 34.722656 Z M 123.996094 34.722656 "/>
<path style=" stroke:none;fill-rule:evenodd;fill:rgb(85.882353%,48.235294%,5.490196%);fill-opacity:1;" d="M 81.921875 33.078125 C 82.253906 33.195312 82.582031 33.3125 82.914062 33.429688 C 82.914062 33.546875 82.914062 33.664062 82.914062 33.78125 C 82.894531 34.496094 82.566406 35.203125 81.921875 35.894531 C 81.757812 36.054688 81.59375 36.210938 81.425781 36.367188 C 80.394531 36.492188 79.734375 36.691406 79.449219 36.953125 C 79.28125 36.953125 79.117188 36.953125 78.953125 36.953125 C 76.769531 37.191406 74.457031 37.328125 72.023438 37.363281 C 71.460938 37.484375 71.625 37.5625 72.515625 37.601562 C 69.371094 37.667969 66.238281 37.648438 63.113281 37.542969 C 60.292969 37.480469 57.820312 37.226562 55.6875 36.777344 C 54.414062 36.417969 53.257812 36.046875 52.222656 35.660156 C 53.03125 35.832031 53.9375 35.988281 54.945312 36.132812 C 55.277344 36.003906 55.773438 35.925781 56.429688 35.894531 C 58.476562 35.894531 59.382812 36.128906 59.152344 36.601562 C 59.976562 36.601562 60.800781 36.601562 61.628906 36.601562 C 61.703125 36.476562 61.617188 36.359375 61.378906 36.25 C 60.570312 36.105469 59.828125 35.949219 59.152344 35.777344 C 59.484375 35.738281 59.8125 35.699219 60.140625 35.660156 C 61.257812 35.886719 62.496094 36.085938 63.855469 36.25 C 65.523438 36.117188 67.09375 35.941406 68.558594 35.71875 C 69.671875 35.617188 70.578125 35.675781 71.28125 35.894531 C 71.808594 35.816406 72.386719 35.757812 73.011719 35.71875 C 72.554688 35.675781 72.222656 35.597656 72.023438 35.484375 C 72.609375 35.199219 73.597656 35.0625 74.992188 35.074219 C 74.992188 34.957031 74.992188 34.839844 74.992188 34.722656 C 76.3125 34.722656 77.632812 34.722656 78.953125 34.722656 C 78.871094 35.113281 78.953125 35.507812 79.199219 35.894531 C 79.449219 35.835938 79.695312 35.777344 79.941406 35.71875 C 79.019531 34.75 78.855469 33.769531 79.449219 32.78125 C 79.777344 32.546875 80.105469 32.546875 80.4375 32.78125 C 79.699219 33.09375 79.367188 33.425781 79.449219 33.78125 C 79.941406 33.78125 80.4375 33.78125 80.933594 33.78125 C 81.035156 33.523438 81.363281 33.289062 81.921875 33.078125 Z M 81.921875 33.078125 "/>
<path style=" stroke:none;fill-rule:evenodd;fill:rgb(10.196078%,60.392157%,63.921569%);fill-opacity:1;" d="M 114.097656 32.253906 C 114.261719 32.253906 114.425781 32.253906 114.59375 32.253906 C 115.085938 32.253906 115.582031 32.253906 116.078125 32.253906 C 116.078125 32.605469 116.078125 32.957031 116.078125 33.3125 C 114.679688 33.261719 113.605469 33.378906 112.859375 33.664062 C 112.613281 34.015625 112.53125 34.367188 112.613281 34.722656 C 113.109375 34.722656 113.601562 34.722656 114.097656 34.722656 C 114.097656 34.996094 114.097656 35.269531 114.097656 35.542969 C 111.621094 35.542969 109.148438 35.542969 106.671875 35.542969 C 106.953125 35.015625 107.28125 34.488281 107.664062 33.957031 C 107.28125 33.429688 106.953125 32.898438 106.671875 32.371094 C 108.324219 32.371094 109.972656 32.371094 111.621094 32.371094 C 111.515625 32.507812 111.679688 32.625 112.117188 32.722656 C 112.816406 32.566406 113.476562 32.410156 114.097656 32.253906 Z M 114.097656 32.253906 "/>
<path style=" stroke:none;fill-rule:evenodd;fill:rgb(3.137255%,12.941176%,13.72549%);fill-opacity:1;" d="M 140.828125 32.957031 C 141.15625 33.488281 141.488281 34.039062 141.816406 34.605469 C 142.148438 34.566406 142.476562 34.523438 142.808594 34.484375 C 143.53125 34.023438 143.367188 33.589844 142.3125 33.195312 C 142.808594 33.195312 143.300781 33.195312 143.796875 33.195312 C 143.671875 33.945312 143.839844 34.6875 144.292969 35.425781 C 141.484375 35.667969 138.675781 35.707031 135.878906 35.542969 C 138.023438 35.542969 140.167969 35.542969 142.3125 35.542969 C 142.3125 35.269531 142.3125 34.996094 142.3125 34.722656 C 141.816406 34.722656 141.324219 34.722656 140.828125 34.722656 C 140.828125 34.132812 140.828125 33.546875 140.828125 32.957031 Z M 140.828125 32.957031 "/>
<path style=" stroke:none;fill-rule:evenodd;fill:rgb(58.039216%,36.078431%,10.196078%);fill-opacity:1;" d="M 82.914062 33.78125 C 83.683594 34.511719 83.351562 35.214844 81.921875 35.894531 C 82.566406 35.203125 82.894531 34.496094 82.914062 33.78125 Z M 82.914062 33.78125 "/>
<path style=" stroke:none;fill-rule:evenodd;fill:rgb(76.862745%,57.647059%,26.27451%);fill-opacity:1;" d="M 153.699219 34.722656 C 153.28125 34.941406 153.117188 35.175781 153.203125 35.425781 C 155.675781 35.425781 158.152344 35.425781 160.628906 35.425781 C 160.628906 35.191406 160.628906 34.957031 160.628906 34.722656 C 161.105469 34.96875 161.273438 35.242188 161.121094 35.542969 C 158.316406 35.542969 155.511719 35.542969 152.707031 35.542969 C 152.453125 35.203125 152.785156 34.929688 153.699219 34.722656 Z M 153.699219 34.722656 "/>
<path style=" stroke:none;fill-rule:evenodd;fill:rgb(27.843137%,12.941176%,4.705882%);fill-opacity:1;" d="M 81.425781 36.367188 C 81.140625 36.628906 80.480469 36.828125 79.449219 36.953125 C 79.734375 36.691406 80.394531 36.492188 81.425781 36.367188 Z M 81.425781 36.367188 "/>
<path style=" stroke:none;fill-rule:evenodd;fill:rgb(72.54902%,42.352941%,12.54902%);fill-opacity:1;" d="M 78.953125 36.953125 C 75.078125 37.828125 70.457031 38.121094 65.09375 37.835938 C 64.132812 37.820312 63.472656 37.722656 63.113281 37.542969 C 66.238281 37.648438 69.371094 37.667969 72.515625 37.601562 C 71.625 37.5625 71.460938 37.484375 72.023438 37.363281 C 74.457031 37.328125 76.769531 37.191406 78.953125 36.953125 Z M 78.953125 36.953125 "/>
<path style=" stroke:none;fill-rule:evenodd;fill:rgb(47.843137%,27.45098%,10.588235%);fill-opacity:1;" d="M 98.753906 38.246094 C 96.105469 38.226562 93.46875 38.246094 90.832031 38.304688 C 89.640625 38.503906 88.320312 38.601562 86.871094 38.597656 C 87.75 38.433594 88.738281 38.296875 89.84375 38.1875 C 92.902344 38.089844 95.871094 38.109375 98.753906 38.246094 Z M 98.753906 38.246094 "/>
<path style=" stroke:none;fill-rule:evenodd;fill:rgb(85.882353%,46.666667%,3.921569%);fill-opacity:1;" d="M 98.753906 38.246094 C 101.589844 38.363281 104.066406 38.640625 106.175781 39.070312 C 106.328125 39.484375 107.234375 39.757812 108.898438 39.890625 C 110.074219 40.269531 109.742188 40.542969 107.910156 40.714844 C 107.664062 40.90625 107.582031 41.101562 107.664062 41.300781 C 109.042969 41.308594 109.953125 41.148438 110.386719 40.832031 C 110.960938 40.96875 111.539062 41.105469 112.117188 41.242188 C 111.566406 41.5625 111.484375 41.898438 111.871094 42.242188 C 112.199219 42.164062 112.53125 42.085938 112.859375 42.007812 C 113.105469 42.394531 113.1875 42.789062 113.109375 43.179688 C 112.816406 43.488281 112.648438 43.804688 112.613281 44.121094 C 110.089844 45.464844 105.964844 46.402344 100.238281 46.941406 C 96.773438 46.941406 93.308594 46.941406 89.84375 46.941406 C 87.941406 46.792969 86.125 46.578125 84.398438 46.296875 C 83.960938 46.210938 83.632812 46.113281 83.40625 46 C 81.902344 45.488281 80.417969 44.980469 78.953125 44.472656 C 77.753906 43.839844 77.257812 43.175781 77.46875 42.476562 C 77.574219 41.75 78.070312 41.042969 78.953125 40.359375 C 79.460938 40.023438 80.285156 39.730469 81.425781 39.480469 C 82.726562 39.289062 83.882812 39.054688 84.890625 38.773438 C 85.507812 38.683594 86.167969 38.625 86.871094 38.597656 C 88.320312 38.601562 89.640625 38.503906 90.832031 38.304688 C 93.46875 38.246094 96.105469 38.226562 98.753906 38.246094 Z M 98.753906 38.246094 "/>
<path style=" stroke:none;fill-rule:evenodd;fill:rgb(80%,45.490196%,7.843137%);fill-opacity:1;" d="M 106.175781 39.070312 C 110.394531 39.738281 112.871094 40.679688 113.601562 41.890625 C 113.757812 42.34375 113.59375 42.773438 113.109375 43.179688 C 113.1875 42.789062 113.105469 42.394531 112.859375 42.007812 C 112.53125 42.085938 112.199219 42.164062 111.871094 42.242188 C 111.484375 41.898438 111.566406 41.5625 112.117188 41.242188 C 111.539062 41.105469 110.960938 40.96875 110.386719 40.832031 C 109.953125 41.148438 109.042969 41.308594 107.664062 41.300781 C 107.582031 41.101562 107.664062 40.90625 107.910156 40.714844 C 109.742188 40.542969 110.074219 40.269531 108.898438 39.890625 C 107.234375 39.757812 106.328125 39.484375 106.175781 39.070312 Z M 106.175781 39.070312 "/>
<path style=" stroke:none;fill-rule:evenodd;fill:rgb(70.980392%,41.960784%,13.333333%);fill-opacity:1;" d="M 78.953125 40.359375 C 78.070312 41.042969 77.574219 41.75 77.46875 42.476562 C 77.257812 43.175781 77.753906 43.839844 78.953125 44.472656 C 80.417969 44.980469 81.902344 45.488281 83.40625 46 C 83.042969 46.015625 82.710938 45.996094 82.417969 45.941406 C 77.023438 44.652344 75.125 43.105469 76.726562 41.300781 C 77.355469 40.960938 78.097656 40.648438 78.953125 40.359375 Z M 78.953125 40.359375 "/>
<path style=" stroke:none;fill-rule:evenodd;fill:rgb(48.235294%,28.627451%,8.627451%);fill-opacity:1;" d="M 113.601562 41.890625 C 114.390625 42.65625 114.0625 43.402344 112.613281 44.121094 C 112.648438 43.804688 112.816406 43.488281 113.109375 43.179688 C 113.59375 42.773438 113.757812 42.34375 113.601562 41.890625 Z M 113.601562 41.890625 "/>
</g>
</svg>
