<?xml version="1.0" encoding="UTF-8"?>
<!DOCTYPE svg PUBLIC "-//W3C//DTD SVG 1.1//EN" "http://www.w3.org/Graphics/SVG/1.1/DTD/svg11.dtd">
<svg xmlns="http://www.w3.org/2000/svg" version="1.1" width="42.666668" height="42.666668" style="shape-rendering:geometricPrecision; text-rendering:geometricPrecision; image-rendering:optimizeQuality; fill-rule:evenodd; clip-rule:evenodd" xmlns:xlink="http://www.w3.org/1999/xlink">
<g><path style="opacity:1" fill="#010000" d="M -0.5,-0.5 C 132.833,-0.5 266.167,-0.5 399.5,-0.5C 399.5,132.833 399.5,266.167 399.5,399.5C 333.833,399.5 268.167,399.5 202.5,399.5C 214.072,394.929 222.406,386.929 227.5,375.5C 230.427,369.371 231.093,363.038 229.5,356.5C 228.023,346.196 223.023,338.196 214.5,332.5C 210.232,328.843 205.232,326.51 199.5,325.5C 193.681,324.347 187.681,324.181 181.5,325C 179.273,325.941 177.273,327.108 175.5,328.5C 174.078,328.709 172.745,329.209 171.5,330C 169.461,332.374 167.128,334.374 164.5,336C 162.192,338.128 160.526,340.628 159.5,343.5C 157.774,345.942 156.274,348.609 155,351.5C 151.767,366.858 155.6,380.024 166.5,391C 167.094,391.464 167.761,391.631 168.5,391.5C 168.953,392.458 169.619,393.292 170.5,394C 173.99,396.412 177.657,398.245 181.5,399.5C 120.833,399.5 60.1667,399.5 -0.5,399.5C -0.5,266.167 -0.5,132.833 -0.5,-0.5 Z"/></g>
<g><path style="opacity:1" fill="#ae9346" d="M 202.5,1.5 C 207.613,1.43071 212.613,2.09738 217.5,3.5C 217.5,3.83333 217.5,4.16667 217.5,4.5C 216.127,4.34332 214.793,4.50999 213.5,5C 214.056,5.38258 214.389,5.88258 214.5,6.5C 213.833,6.5 213.167,6.5 212.5,6.5C 209.117,4.83109 205.784,3.16442 202.5,1.5 Z"/></g>
<g><path style="opacity:1" fill="#654115" d="M 217.5,4.5 C 217.5,4.16667 217.5,3.83333 217.5,3.5C 220.428,3.56513 223.095,4.2318 225.5,5.5C 222.794,5.4249 220.127,5.09157 217.5,4.5 Z"/></g>
<g><path style="opacity:1" fill="#1b92a3" d="M 212.5,6.5 C 213.167,6.5 213.833,6.5 214.5,6.5C 231.826,16.4928 245.493,30.1595 255.5,47.5C 254.167,47.5 252.833,47.5 251.5,47.5C 251.833,44.5 250.5,43.1667 247.5,43.5C 247.714,45.1439 247.38,46.6439 246.5,48C 249.779,49.2684 250.112,50.7684 247.5,52.5C 245.46,50.823 243.46,49.1563 241.5,47.5C 240.435,45.4749 239.102,43.6416 237.5,42C 238.819,40.3721 240.152,40.5387 241.5,42.5C 241.833,42 242.167,41.5 242.5,41C 241.293,39.6998 240.626,38.1998 240.5,36.5C 239.5,36.5 238.5,36.5 237.5,36.5C 237.67,35.1779 237.337,34.0113 236.5,33C 233.454,33.314 230.454,33.1474 227.5,32.5C 230.107,31.6816 232.774,31.1816 235.5,31C 234.207,30.51 232.873,30.3433 231.5,30.5C 231.383,28.5165 232.05,26.8498 233.5,25.5C 231.993,24.2612 230.826,24.5946 230,26.5C 229.239,22.7493 228.072,22.5826 226.5,26C 225.552,26.4828 224.552,26.6495 223.5,26.5C 223.5,25.1667 223.5,23.8333 223.5,22.5C 224.5,22.5 225.5,22.5 226.5,22.5C 226.36,20.8762 227.027,19.7096 228.5,19C 226.833,18.6667 225.167,18.3333 223.5,18C 223.957,17.586 224.291,17.086 224.5,16.5C 220.607,14.0003 216.274,12.8337 211.5,13C 210.505,11.1658 209.005,9.99913 207,9.5C 201.972,11.943 196.805,12.1096 191.5,10C 186.167,9.33333 180.833,9.33333 175.5,10C 168.915,11.2705 168.915,12.7705 175.5,14.5C 174.667,14.8333 173.833,15.1667 173,15.5C 170.54,14.6866 168.04,14.0199 165.5,13.5C 157.381,16.2072 149.714,19.8739 142.5,24.5C 141.713,23.7579 141.047,22.9246 140.5,22C 141.823,21.1841 142.489,20.0174 142.5,18.5C 143.09,16.9028 144.09,15.5695 145.5,14.5C 145.376,13.8933 145.043,13.56 144.5,13.5C 145.965,12.2632 147.632,11.2632 149.5,10.5C 149.703,12.3904 149.037,13.8904 147.5,15C 150.428,14.3513 153.261,13.1847 156,11.5C 156.873,11.7355 157.707,12.0688 158.5,12.5C 159.936,10.1782 161.77,9.51149 164,10.5C 172.007,7.65689 180.34,5.65689 189,4.5C 190.447,4.94522 191.78,5.61188 193,6.5C 196.121,5.46407 199.287,5.29741 202.5,6C 205.461,7.26472 208.461,8.43138 211.5,9.5C 213.519,8.86709 213.853,7.86709 212.5,6.5 Z"/></g>
<g><path style="opacity:1" fill="#127d9c" d="M 202.5,1.5 C 205.784,3.16442 209.117,4.83109 212.5,6.5C 213.853,7.86709 213.519,8.86709 211.5,9.5C 208.461,8.43138 205.461,7.26472 202.5,6C 199.287,5.29741 196.121,5.46407 193,6.5C 191.78,5.61188 190.447,4.94522 189,4.5C 180.34,5.65689 172.007,7.65689 164,10.5C 161.77,9.51149 159.936,10.1782 158.5,12.5C 157.707,12.0688 156.873,11.7355 156,11.5C 153.261,13.1847 150.428,14.3513 147.5,15C 149.037,13.8904 149.703,12.3904 149.5,10.5C 161.657,2.79396 174.991,-0.539371 189.5,0.5C 194.013,0.500929 198.347,0.834263 202.5,1.5 Z"/></g>
<g><path style="opacity:1" fill="#139ea7" d="M 241.5,47.5 C 232.465,41.817 222.798,37.4837 212.5,34.5C 211.319,32.9328 209.653,32.0995 207.5,32C 202.667,31.8333 197.833,31.6667 193,31.5C 186.254,31.2796 179.754,31.9463 173.5,33.5C 153.455,38.2299 137.455,48.8966 125.5,65.5C 125.123,62.4752 124.956,59.4752 125,56.5C 126.316,59.028 127.483,59.028 128.5,56.5C 127.598,53.9602 126.598,51.4602 125.5,49C 126.424,47.1886 127.257,47.3553 128,49.5C 128.903,48.2986 130.069,47.4652 131.5,47C 130.207,46.51 128.873,46.3433 127.5,46.5C 127.762,45.0222 127.429,43.6888 126.5,42.5C 123.922,45.276 122.422,48.6094 122,52.5C 118.966,55.5142 117.799,59.1809 118.5,63.5C 117.833,63.5 117.167,63.5 116.5,63.5C 116.834,56.8567 118.834,50.8567 122.5,45.5C 123.492,43.5439 124.492,41.5439 125.5,39.5C 126.65,36.7018 127.983,34.0352 129.5,31.5C 131.017,31.4894 132.184,30.8228 133,29.5C 134.581,26.084 136.748,23.084 139.5,20.5C 140.5,19.8333 141.5,19.1667 142.5,18.5C 142.489,20.0174 141.823,21.1841 140.5,22C 141.047,22.9246 141.713,23.7579 142.5,24.5C 149.714,19.8739 157.381,16.2072 165.5,13.5C 168.04,14.0199 170.54,14.6866 173,15.5C 173.833,15.1667 174.667,14.8333 175.5,14.5C 168.915,12.7705 168.915,11.2705 175.5,10C 180.833,9.33333 186.167,9.33333 191.5,10C 196.805,12.1096 201.972,11.943 207,9.5C 209.005,9.99913 210.505,11.1658 211.5,13C 216.274,12.8337 220.607,14.0003 224.5,16.5C 224.291,17.086 223.957,17.586 223.5,18C 225.167,18.3333 226.833,18.6667 228.5,19C 227.027,19.7096 226.36,20.8762 226.5,22.5C 225.5,22.5 224.5,22.5 223.5,22.5C 223.5,23.8333 223.5,25.1667 223.5,26.5C 224.552,26.6495 225.552,26.4828 226.5,26C 228.072,22.5826 229.239,22.7493 230,26.5C 230.826,24.5946 231.993,24.2612 233.5,25.5C 232.05,26.8498 231.383,28.5165 231.5,30.5C 232.873,30.3433 234.207,30.51 235.5,31C 232.774,31.1816 230.107,31.6816 227.5,32.5C 230.454,33.1474 233.454,33.314 236.5,33C 237.337,34.0113 237.67,35.1779 237.5,36.5C 238.5,36.5 239.5,36.5 240.5,36.5C 240.626,38.1998 241.293,39.6998 242.5,41C 242.167,41.5 241.833,42 241.5,42.5C 240.152,40.5387 238.819,40.3721 237.5,42C 239.102,43.6416 240.435,45.4749 241.5,47.5 Z"/></g>
<g><path style="opacity:1" fill="#788a5f" d="M 144.5,13.5 C 145.043,13.56 145.376,13.8933 145.5,14.5C 144.09,15.5695 143.09,16.9028 142.5,18.5C 141.5,19.1667 140.5,19.8333 139.5,20.5C 139.703,18.9557 140.37,17.6223 141.5,16.5C 141.376,15.8933 141.043,15.56 140.5,15.5C 141.287,13.8958 142.62,13.2291 144.5,13.5 Z"/></g>
<g><path style="opacity:1" fill="#c8a244" d="M 140.5,15.5 C 141.043,15.56 141.376,15.8933 141.5,16.5C 140.37,17.6223 139.703,18.9557 139.5,20.5C 137.938,20.7329 136.605,21.3995 135.5,22.5C 135.631,21.7611 135.464,21.0944 135,20.5C 134.184,21.8228 133.017,22.4894 131.5,22.5C 133.918,19.4531 136.918,17.1198 140.5,15.5 Z"/></g>
<g><path style="opacity:1" fill="#6a9964" d="M 139.5,20.5 C 136.748,23.084 134.581,26.084 133,29.5C 132.184,30.8228 131.017,31.4894 129.5,31.5C 130.69,27.974 132.69,24.974 135.5,22.5C 136.605,21.3995 137.938,20.7329 139.5,20.5 Z"/></g>
<g><path style="opacity:1" fill="#e79f19" d="M 217.5,4.5 C 220.127,5.09157 222.794,5.4249 225.5,5.5C 259.855,14.5837 287.689,33.2504 309,61.5C 311.372,64.9099 313.205,68.5766 314.5,72.5C 314.89,75.8394 315.39,79.1727 316,82.5C 317.57,83.614 318.903,84.9474 320,86.5C 320.093,90.8405 320.093,95.1739 320,99.5C 320.249,98.376 320.749,97.376 321.5,96.5C 324.502,104.672 327.002,113.006 329,121.5C 329.843,135.891 329.343,150.224 327.5,164.5C 326.5,164.5 325.5,164.5 324.5,164.5C 324.665,168.182 324.499,171.848 324,175.5C 322.729,181 321.229,186.333 319.5,191.5C 311.175,210.828 298.175,226.161 280.5,237.5C 279.662,237.158 279.328,236.492 279.5,235.5C 282.66,231.852 285.327,227.852 287.5,223.5C 288.5,223.5 289.5,223.5 290.5,223.5C 290.401,220.763 290.735,218.096 291.5,215.5C 291.5,215.167 291.5,214.833 291.5,214.5C 292.924,212.485 293.59,210.152 293.5,207.5C 294.268,206.737 294.768,205.737 295,204.5C 295.499,200.179 295.666,195.846 295.5,191.5C 295.827,181.985 295.494,172.652 294.5,163.5C 294.5,160.167 294.5,156.833 294.5,153.5C 295.169,147.705 294.169,142.372 291.5,137.5C 291.5,137.167 291.5,136.833 291.5,136.5C 290.124,131.632 289.29,126.632 289,121.5C 287.807,117.852 286.307,114.519 284.5,111.5C 284.357,109.738 284.691,108.071 285.5,106.5C 282.85,102.826 280.516,99.1588 278.5,95.5C 276.205,90.2349 273.872,84.9016 271.5,79.5C 271.111,75.1531 269.444,71.4864 266.5,68.5C 264.421,64.0074 262.088,59.674 259.5,55.5C 258.571,52.5881 257.238,49.9214 255.5,47.5C 245.493,30.1595 231.826,16.4928 214.5,6.5C 214.389,5.88258 214.056,5.38258 213.5,5C 214.793,4.50999 216.127,4.34332 217.5,4.5 Z"/></g>
<g><path style="opacity:1" fill="#23727a" d="M 212.5,34.5 C 199.569,32.286 186.569,31.9527 173.5,33.5C 179.754,31.9463 186.254,31.2796 193,31.5C 197.833,31.6667 202.667,31.8333 207.5,32C 209.653,32.0995 211.319,32.9328 212.5,34.5 Z"/></g>
<g><path style="opacity:1" fill="#7d9962" d="M 125.5,39.5 C 124.492,41.5439 123.492,43.5439 122.5,45.5C 122.025,42.6874 123.025,40.6874 125.5,39.5 Z"/></g>
<g><path style="opacity:1" fill="#cf982f" d="M 171.5,63.5 C 172.333,61.2478 172.333,59.0811 171.5,57C 172.167,56.3333 172.833,55.6667 173.5,55C 171.447,54.6753 169.447,55.0087 167.5,56C 166.211,57.8022 164.544,58.9688 162.5,59.5C 169.546,52.4655 177.546,46.6321 186.5,42C 187.5,41.3333 188.5,41.3333 189.5,42C 181.945,47.9923 175.945,55.159 171.5,63.5 Z"/></g>
<g><path style="opacity:1" fill="#1b7595" d="M 255.5,47.5 C 257.238,49.9214 258.571,52.5881 259.5,55.5C 260.833,58.1667 260.833,60.8333 259.5,63.5C 255.5,59.8333 251.5,56.1667 247.5,52.5C 250.112,50.7684 249.779,49.2684 246.5,48C 247.38,46.6439 247.714,45.1439 247.5,43.5C 250.5,43.1667 251.833,44.5 251.5,47.5C 252.833,47.5 254.167,47.5 255.5,47.5 Z"/></g>
<g><path style="opacity:1" fill="#0d87a4" d="M 125.5,65.5 C 123.163,69.5079 120.83,73.5079 118.5,77.5C 116.896,76.713 116.229,75.3797 116.5,73.5C 118.346,73.7778 119.68,73.1112 120.5,71.5C 119.92,68.6894 119.254,66.0227 118.5,63.5C 117.799,59.1809 118.966,55.5142 122,52.5C 122.422,48.6094 123.922,45.276 126.5,42.5C 127.429,43.6888 127.762,45.0222 127.5,46.5C 128.873,46.3433 130.207,46.51 131.5,47C 130.069,47.4652 128.903,48.2986 128,49.5C 127.257,47.3553 126.424,47.1886 125.5,49C 126.598,51.4602 127.598,53.9602 128.5,56.5C 127.483,59.028 126.316,59.028 125,56.5C 124.956,59.4752 125.123,62.4752 125.5,65.5 Z"/></g>
<g><path style="opacity:1" fill="#3c7276" d="M 259.5,55.5 C 262.088,59.674 264.421,64.0074 266.5,68.5C 267.038,70.1172 267.371,71.7839 267.5,73.5C 264.844,70.2059 262.178,66.8726 259.5,63.5C 260.833,60.8333 260.833,58.1667 259.5,55.5 Z"/></g>
<g><path style="opacity:1" fill="#e5a828" d="M 135.5,22.5 C 132.69,24.974 130.69,27.974 129.5,31.5C 127.983,34.0352 126.65,36.7018 125.5,39.5C 123.025,40.6874 122.025,42.6874 122.5,45.5C 118.834,50.8567 116.834,56.8567 116.5,63.5C 112.943,73.6635 111.276,84.3302 111.5,95.5C 111.5,106.167 111.5,116.833 111.5,127.5C 108.639,127.487 107.639,126.321 108.5,124C 105.583,117.524 104.25,110.691 104.5,103.5C 104.989,98.7071 105.655,94.2071 106.5,90C 105.711,88.3745 104.711,86.8745 103.5,85.5C 101.477,86.041 99.477,85.541 97.5,84C 95.9632,82.8904 95.2965,81.3904 95.5,79.5C 93.1667,79.5 90.8333,79.5 88.5,79.5C 89.0138,81.5116 89.1805,83.5116 89,85.5C 88.0471,83.6269 86.8804,83.2935 85.5,84.5C 93.9823,61.7081 107.316,42.2081 125.5,26C 127.405,24.5787 129.405,23.412 131.5,22.5C 133.017,22.4894 134.184,21.8228 135,20.5C 135.464,21.0944 135.631,21.7611 135.5,22.5 Z"/></g>
<g><path style="opacity:1" fill="#e8a41e" d="M 171.5,63.5 C 167.016,73.637 164.349,84.3037 163.5,95.5C 162.691,97.2922 162.191,99.2922 162,101.5C 161.5,110.16 161.334,118.827 161.5,127.5C 161.889,134.17 162.389,140.836 163,147.5C 163.708,148.381 164.542,149.047 165.5,149.5C 165.517,151.565 165.85,153.565 166.5,155.5C 166.34,158.884 166.673,162.217 167.5,165.5C 167.148,166.786 166.482,167.619 165.5,168C 166.35,169.286 167.517,169.119 169,167.5C 169.374,169.491 170.207,171.158 171.5,172.5C 171.5,172.833 171.5,173.167 171.5,173.5C 171.89,176.839 172.39,180.173 173,183.5C 173.708,184.381 174.542,185.047 175.5,185.5C 177.04,187.922 178.04,190.589 178.5,193.5C 179.508,195.544 180.508,197.544 181.5,199.5C 183.133,203.429 185.133,207.096 187.5,210.5C 193.013,220.818 200.013,230.152 208.5,238.5C 210.868,239.889 213.201,241.222 215.5,242.5C 216.984,244.074 218.651,245.407 220.5,246.5C 220.611,247.117 220.944,247.617 221.5,248C 217.848,248.499 214.182,248.665 210.5,248.5C 210.389,247.883 210.056,247.383 209.5,247C 206.173,246.39 202.839,245.89 199.5,245.5C 187.998,242.752 177.998,237.419 169.5,229.5C 167.184,226.825 165.184,223.825 163.5,220.5C 160.913,219.381 158.58,218.047 156.5,216.5C 148.478,207.802 142.478,197.802 138.5,186.5C 136.582,180.576 134.749,174.576 133,168.5C 132.223,165.571 132.39,162.737 133.5,160C 132.552,159.517 131.552,159.351 130.5,159.5C 128.645,141.368 129.312,123.368 132.5,105.5C 134.024,103.592 135.357,101.425 136.5,99C 137.744,98.5439 138.577,99.0439 139,100.5C 139.333,97.1667 139.667,93.8333 140,90.5C 141.953,87.7449 143.12,84.7449 143.5,81.5C 146.488,76.2084 149.988,71.2084 154,66.5C 157.066,64.2487 159.9,61.9154 162.5,59.5C 164.544,58.9688 166.211,57.8022 167.5,56C 169.447,55.0087 171.447,54.6753 173.5,55C 172.833,55.6667 172.167,56.3333 171.5,57C 172.333,59.0811 172.333,61.2478 171.5,63.5 Z"/></g>
<g><path style="opacity:1" fill="#a49350" d="M 266.5,68.5 C 269.444,71.4864 271.111,75.1531 271.5,79.5C 270.675,77.1898 269.342,75.1898 267.5,73.5C 267.371,71.7839 267.038,70.1172 266.5,68.5 Z"/></g>
<g><path style="opacity:1" fill="#0e759e" d="M 116.5,63.5 C 117.167,63.5 117.833,63.5 118.5,63.5C 119.254,66.0227 119.92,68.6894 120.5,71.5C 119.68,73.1112 118.346,73.7778 116.5,73.5C 116.229,75.3797 116.896,76.713 118.5,77.5C 117.5,80.1667 116.5,82.8333 115.5,85.5C 114.837,83.5274 114.504,81.3608 114.5,79C 115.853,74.0131 116.52,68.8464 116.5,63.5 Z"/></g>
<g><path style="opacity:1" fill="#3e7675" d="M 116.5,63.5 C 116.52,68.8464 115.853,74.0131 114.5,79C 114.504,81.3608 114.837,83.5274 115.5,85.5C 114.162,88.8776 112.828,92.2109 111.5,95.5C 111.276,84.3302 112.943,73.6635 116.5,63.5 Z"/></g>
<g><path style="opacity:1" fill="#e9a622" d="M 111.5,127.5 C 112.473,129.948 112.806,132.615 112.5,135.5C 112.5,137.167 112.5,138.833 112.5,140.5C 109.682,139.03 106.682,138.03 103.5,137.5C 103.5,138.5 103.5,139.5 103.5,140.5C 101.187,139.332 98.854,137.998 96.5,136.5C 95.5258,138.743 95.1924,141.076 95.5,143.5C 94.1667,143.5 92.8333,143.5 91.5,143.5C 91.67,144.822 91.3366,145.989 90.5,147C 86.8501,149.6 82.8501,151.433 78.5,152.5C 77.6786,149.553 77.1786,146.553 77,143.5C 75.4836,154.577 73.6503,164.91 71.5,174.5C 71.1801,167.866 70.8467,161.366 70.5,155C 70.7191,151.405 71.3858,147.905 72.5,144.5C 71.8951,138.889 71.8951,133.222 72.5,127.5C 72.5,126.833 72.5,126.167 72.5,125.5C 73.5862,125.38 74.2528,124.713 74.5,123.5C 76.3516,114.431 78.3516,105.431 80.5,96.5C 81.4014,92.115 83.0681,88.115 85.5,84.5C 86.8804,83.2935 88.0471,83.6269 89,85.5C 89.1805,83.5116 89.0138,81.5116 88.5,79.5C 90.8333,79.5 93.1667,79.5 95.5,79.5C 95.2965,81.3904 95.9632,82.8904 97.5,84C 99.477,85.541 101.477,86.041 103.5,85.5C 104.711,86.8745 105.711,88.3745 106.5,90C 105.655,94.2071 104.989,98.7071 104.5,103.5C 104.25,110.691 105.583,117.524 108.5,124C 107.639,126.321 108.639,127.487 111.5,127.5 Z"/></g>
<g><path style="opacity:1" fill="#d49b2b" d="M 143.5,81.5 C 143.12,84.7449 141.953,87.7449 140,90.5C 139.667,93.8333 139.333,97.1667 139,100.5C 138.577,99.0439 137.744,98.5439 136.5,99C 135.357,101.425 134.024,103.592 132.5,105.5C 134.376,96.6328 138.042,88.6328 143.5,81.5 Z"/></g>
<g><path style="opacity:1" fill="#7d5a27" d="M 324.5,96.5 C 325.924,98.5145 326.59,100.848 326.5,103.5C 325.076,101.485 324.41,99.1522 324.5,96.5 Z"/></g>
<g><path style="opacity:1" fill="#c9902c" d="M 278.5,95.5 C 280.516,99.1588 282.85,102.826 285.5,106.5C 284.691,108.071 284.357,109.738 284.5,111.5C 281.987,106.453 279.987,101.12 278.5,95.5 Z"/></g>
<g><path style="opacity:1" fill="#bd953d" d="M 284.5,111.5 C 286.307,114.519 287.807,117.852 289,121.5C 289.29,126.632 290.124,131.632 291.5,136.5C 290.313,134.928 289.313,133.261 288.5,131.5C 287.799,124.698 286.466,118.031 284.5,111.5 Z"/></g>
<g><path style="opacity:1" fill="#825c24" d="M 163.5,95.5 C 162.723,106.148 162.39,116.815 162.5,127.5C 162.167,127.5 161.833,127.5 161.5,127.5C 161.334,118.827 161.5,110.16 162,101.5C 162.191,99.2922 162.691,97.2922 163.5,95.5 Z"/></g>
<g><path style="opacity:1" fill="#af8430" d="M 80.5,96.5 C 78.3516,105.431 76.3516,114.431 74.5,123.5C 74.2528,124.713 73.5862,125.38 72.5,125.5C 74.0977,115.432 76.7643,105.766 80.5,96.5 Z"/></g>
<g><path style="opacity:1" fill="#cb942f" d="M 132.5,105.5 C 129.312,123.368 128.645,141.368 130.5,159.5C 131.552,159.351 132.552,159.517 133.5,160C 132.39,162.737 132.223,165.571 133,168.5C 134.749,174.576 136.582,180.576 138.5,186.5C 132.933,175.617 129.433,163.95 128,151.5C 127.333,141.5 127.333,131.5 128,121.5C 128.59,115.794 130.09,110.46 132.5,105.5 Z"/></g>
<g><path style="opacity:1" fill="#c28c2b" d="M 314.5,72.5 C 319.166,79.7992 322.499,87.7992 324.5,96.5C 324.41,99.1522 325.076,101.485 326.5,103.5C 327.815,108.427 328.981,113.427 330,118.5C 331.606,137.731 330.272,156.731 326,175.5C 324.482,181.248 322.316,186.582 319.5,191.5C 321.229,186.333 322.729,181 324,175.5C 324.499,171.848 324.665,168.182 324.5,164.5C 325.5,164.5 326.5,164.5 327.5,164.5C 329.343,150.224 329.843,135.891 329,121.5C 327.002,113.006 324.502,104.672 321.5,96.5C 320.749,97.376 320.249,98.376 320,99.5C 320.093,95.1739 320.093,90.8405 320,86.5C 318.903,84.9474 317.57,83.614 316,82.5C 315.39,79.1727 314.89,75.8394 314.5,72.5 Z"/></g>
<g><path style="opacity:1" fill="#bfa043" d="M 291.5,137.5 C 294.169,142.372 295.169,147.705 294.5,153.5C 292.754,148.428 291.754,143.095 291.5,137.5 Z"/></g>
<g><path style="opacity:1" fill="#c69032" d="M 161.5,127.5 C 161.833,127.5 162.167,127.5 162.5,127.5C 163.313,134.861 164.313,142.194 165.5,149.5C 164.542,149.047 163.708,148.381 163,147.5C 162.389,140.836 161.889,134.17 161.5,127.5 Z"/></g>
<g><path style="opacity:1" fill="#1f7691" d="M 288.5,131.5 C 289.313,133.261 290.313,134.928 291.5,136.5C 291.5,136.833 291.5,137.167 291.5,137.5C 291.754,143.095 292.754,148.428 294.5,153.5C 294.5,156.833 294.5,160.167 294.5,163.5C 293.683,165.969 293.183,168.635 293,171.5C 291.985,167.56 291.485,163.56 291.5,159.5C 289.446,159.365 287.779,160.032 286.5,161.5C 287.828,151.55 288.495,141.55 288.5,131.5 Z"/></g>
<g><path style="opacity:1" fill="#e69f1e" d="M 112.5,135.5 C 113.759,144.47 115.426,153.47 117.5,162.5C 117.41,165.152 118.076,167.485 119.5,169.5C 120.015,171.894 120.681,174.228 121.5,176.5C 121.973,182.648 123.14,188.648 125,194.5C 125.671,195.252 126.504,195.586 127.5,195.5C 127.5,195.833 127.5,196.167 127.5,196.5C 127.5,197.5 127.5,198.5 127.5,199.5C 125.629,199.141 124.129,198.141 123,196.5C 122.95,194.256 122.117,192.589 120.5,191.5C 119.399,187.944 118.399,184.277 117.5,180.5C 116.065,179.176 115.065,177.51 114.5,175.5C 114.167,176.167 113.833,176.833 113.5,177.5C 114.937,181.752 116.271,186.085 117.5,190.5C 117.147,192.731 116.314,194.731 115,196.5C 114.594,191.034 113.594,185.701 112,180.5C 106.803,182.42 101.303,183.087 95.5,182.5C 95.5,185.5 95.5,188.5 95.5,191.5C 90.1667,191.5 84.8333,191.5 79.5,191.5C 79.9239,195.703 79.4239,199.703 78,203.5C 76.7473,200.446 76.9139,197.279 78.5,194C 78.2308,192.393 77.3974,191.226 76,190.5C 75.6667,187.5 75.3333,184.5 75,181.5C 74.7883,184.758 74.2883,187.924 73.5,191C 74.733,192.698 75.3996,194.698 75.5,197C 75.0329,205.915 74.0329,214.748 72.5,223.5C 71.3126,220.054 70.6459,216.387 70.5,212.5C 69.5494,197.51 69.3827,182.51 70,167.5C 70.1862,170.036 70.6862,172.369 71.5,174.5C 73.6503,164.91 75.4836,154.577 77,143.5C 77.1786,146.553 77.6786,149.553 78.5,152.5C 82.8501,151.433 86.8501,149.6 90.5,147C 91.3366,145.989 91.67,144.822 91.5,143.5C 92.8333,143.5 94.1667,143.5 95.5,143.5C 95.1924,141.076 95.5258,138.743 96.5,136.5C 98.854,137.998 101.187,139.332 103.5,140.5C 103.5,139.5 103.5,138.5 103.5,137.5C 106.682,138.03 109.682,139.03 112.5,140.5C 112.5,138.833 112.5,137.167 112.5,135.5 Z"/></g>
<g><path style="opacity:1" fill="#cc932f" d="M 72.5,127.5 C 71.8951,133.222 71.8951,138.889 72.5,144.5C 71.3858,147.905 70.7191,151.405 70.5,155C 70.8467,161.366 71.1801,167.866 71.5,174.5C 70.6862,172.369 70.1862,170.036 70,167.5C 69.3827,182.51 69.5494,197.51 70.5,212.5C 69.6981,211.048 69.1981,209.382 69,207.5C 67.0739,186.163 67.0739,164.829 69,143.5C 69.9448,137.986 71.1115,132.652 72.5,127.5 Z"/></g>
<g><path style="opacity:1" fill="#cda43e" d="M 166.5,155.5 C 167.345,156.671 168.011,158.005 168.5,159.5C 169.301,163.897 170.301,168.231 171.5,172.5C 170.207,171.158 169.374,169.491 169,167.5C 167.517,169.119 166.35,169.286 165.5,168C 166.482,167.619 167.148,166.786 167.5,165.5C 166.673,162.217 166.34,158.884 166.5,155.5 Z"/></g>
<g><path style="opacity:1" fill="#845e19" d="M 117.5,162.5 C 118.924,164.515 119.59,166.848 119.5,169.5C 118.076,167.485 117.41,165.152 117.5,162.5 Z"/></g>
<g><path style="opacity:1" fill="#e6991a" d="M 120.5,191.5 C 119.734,193.684 119.067,196.018 118.5,198.5C 119.939,200.553 121.939,201.553 124.5,201.5C 122.934,204.294 121.267,207.628 119.5,211.5C 116.833,211.5 114.167,211.5 111.5,211.5C 111.5,212.833 111.5,214.167 111.5,215.5C 108.191,215.308 105.691,216.641 104,219.5C 103.51,218.207 103.343,216.873 103.5,215.5C 100.833,215.5 98.1667,215.5 95.5,215.5C 95.5,219.833 95.5,224.167 95.5,228.5C 90.1667,228.5 84.8333,228.5 79.5,228.5C 79.6567,229.873 79.49,231.207 79,232.5C 78.7837,230.616 78.117,228.949 77,227.5C 76.5034,229.81 76.3367,232.143 76.5,234.5C 75.1667,230.833 73.8333,227.167 72.5,223.5C 74.0329,214.748 75.0329,205.915 75.5,197C 75.3996,194.698 74.733,192.698 73.5,191C 74.2883,187.924 74.7883,184.758 75,181.5C 75.3333,184.5 75.6667,187.5 76,190.5C 77.3974,191.226 78.2308,192.393 78.5,194C 76.9139,197.279 76.7473,200.446 78,203.5C 79.4239,199.703 79.9239,195.703 79.5,191.5C 84.8333,191.5 90.1667,191.5 95.5,191.5C 95.5,188.5 95.5,185.5 95.5,182.5C 101.303,183.087 106.803,182.42 112,180.5C 113.594,185.701 114.594,191.034 115,196.5C 116.314,194.731 117.147,192.731 117.5,190.5C 116.271,186.085 114.937,181.752 113.5,177.5C 113.833,176.833 114.167,176.167 114.5,175.5C 115.065,177.51 116.065,179.176 117.5,180.5C 118.399,184.277 119.399,187.944 120.5,191.5 Z"/></g>
<g><path style="opacity:1" fill="#b9a14c" d="M 171.5,173.5 C 173.205,177.331 174.538,181.331 175.5,185.5C 174.542,185.047 173.708,184.381 173,183.5C 172.39,180.173 171.89,176.839 171.5,173.5 Z"/></g>
<g><path style="opacity:1" fill="#1084a4" d="M 175.5,172.5 C 179.189,176.865 182.522,181.531 185.5,186.5C 184.634,188.827 183.634,191.161 182.5,193.5C 179.265,190.902 178.265,187.569 179.5,183.5C 175.554,180.626 174.221,176.959 175.5,172.5 Z"/></g>
<g><path style="opacity:1" fill="#327783" d="M 168.5,159.5 C 171.593,163.347 173.926,167.68 175.5,172.5C 174.221,176.959 175.554,180.626 179.5,183.5C 178.265,187.569 179.265,190.902 182.5,193.5C 182.337,195.857 182.503,198.19 183,200.5C 185.858,203.217 187.358,206.55 187.5,210.5C 185.133,207.096 183.133,203.429 181.5,199.5C 181.975,196.687 180.975,194.687 178.5,193.5C 178.04,190.589 177.04,187.922 175.5,185.5C 174.538,181.331 173.205,177.331 171.5,173.5C 171.5,173.167 171.5,172.833 171.5,172.5C 170.301,168.231 169.301,163.897 168.5,159.5 Z"/></g>
<g><path style="opacity:1" fill="#ba812a" d="M 121.5,176.5 C 123.163,182.855 125.163,189.188 127.5,195.5C 126.504,195.586 125.671,195.252 125,194.5C 123.14,188.648 121.973,182.648 121.5,176.5 Z"/></g>
<g><path style="opacity:1" fill="#139ea7" d="M 294.5,163.5 C 295.494,172.652 295.827,181.985 295.5,191.5C 294.194,196.616 293.527,201.949 293.5,207.5C 292.076,209.515 291.41,211.848 291.5,214.5C 291.5,214.833 291.5,215.167 291.5,215.5C 290.833,215.833 290.167,216.167 289.5,216.5C 290.023,210.938 291.023,205.438 292.5,200C 292.167,198.833 291.833,197.667 291.5,196.5C 289.029,207.272 284.029,216.772 276.5,225C 276.645,225.772 276.978,226.439 277.5,227C 275.512,227.18 273.512,227.014 271.5,226.5C 271.703,228.39 271.037,229.89 269.5,231C 266.714,233.06 263.714,234.56 260.5,235.5C 260.67,236.822 260.337,237.989 259.5,239C 256.242,239.212 253.076,239.712 250,240.5C 241.251,239.516 232.418,239.183 223.5,239.5C 222.508,239.672 221.842,239.338 221.5,238.5C 219.983,237.265 218.316,237.265 216.5,238.5C 215.385,236.511 215.718,234.678 217.5,233C 215.789,228.241 214.789,228.408 214.5,233.5C 213.167,233.5 211.833,233.5 210.5,233.5C 210.949,231.023 210.283,229.023 208.5,227.5C 207.115,231.378 205.949,231.378 205,227.5C 203.693,226.228 202.193,225.228 200.5,224.5C 203.058,222.231 202.558,220.565 199,219.5C 198.505,217.527 198.338,215.527 198.5,213.5C 196.167,213.5 193.833,213.5 191.5,213.5C 191.472,210.749 190.472,208.415 188.5,206.5C 191.386,204.486 192.553,201.82 192,198.5C 190.903,200.053 189.57,201.386 188,202.5C 187.833,201.833 187.667,201.167 187.5,200.5C 188.651,198.675 189.318,196.675 189.5,194.5C 187.139,194.326 184.806,193.993 182.5,193.5C 183.634,191.161 184.634,188.827 185.5,186.5C 189.301,190.473 192.968,194.64 196.5,199C 216.932,219.126 239.266,221.459 263.5,206C 276.365,193.768 284.032,178.934 286.5,161.5C 287.779,160.032 289.446,159.365 291.5,159.5C 291.485,163.56 291.985,167.56 293,171.5C 293.183,168.635 293.683,165.969 294.5,163.5 Z"/></g>
<g><path style="opacity:1" fill="#7a945a" d="M 178.5,193.5 C 180.975,194.687 181.975,196.687 181.5,199.5C 180.508,197.544 179.508,195.544 178.5,193.5 Z"/></g>
<g><path style="opacity:1" fill="#a5752b" d="M 127.5,196.5 C 130.593,201.425 132.926,206.758 134.5,212.5C 131.614,208.549 129.281,204.216 127.5,199.5C 127.5,198.5 127.5,197.5 127.5,196.5 Z"/></g>
<g><path style="opacity:1" fill="#e39217" d="M 120.5,191.5 C 122.117,192.589 122.95,194.256 123,196.5C 124.129,198.141 125.629,199.141 127.5,199.5C 129.281,204.216 131.614,208.549 134.5,212.5C 134.657,213.873 134.49,215.207 134,216.5C 133.692,215.692 133.192,215.025 132.5,214.5C 131.723,216.781 130.723,218.948 129.5,221C 130.308,222.706 131.641,223.539 133.5,223.5C 133.649,226.607 133.149,229.607 132,232.5C 130.927,231.72 129.76,231.887 128.5,233C 127.24,234.814 127.24,236.647 128.5,238.5C 130.343,237.061 132.01,237.228 133.5,239C 129.5,239.333 125.5,239.667 121.5,240C 115.366,243.636 109.366,247.469 103.5,251.5C 100.232,252.487 96.8984,252.82 93.5,252.5C 93.5,254.5 93.5,256.5 93.5,258.5C 88.7589,258.409 86.5923,260.742 87,265.5C 85.9887,264.663 84.8221,264.33 83.5,264.5C 81.1038,258.978 79.1038,253.312 77.5,247.5C 77.4135,243.143 77.0802,238.81 76.5,234.5C 76.3367,232.143 76.5034,229.81 77,227.5C 78.117,228.949 78.7837,230.616 79,232.5C 79.49,231.207 79.6567,229.873 79.5,228.5C 84.8333,228.5 90.1667,228.5 95.5,228.5C 95.5,224.167 95.5,219.833 95.5,215.5C 98.1667,215.5 100.833,215.5 103.5,215.5C 103.343,216.873 103.51,218.207 104,219.5C 105.691,216.641 108.191,215.308 111.5,215.5C 111.5,214.167 111.5,212.833 111.5,211.5C 114.167,211.5 116.833,211.5 119.5,211.5C 121.267,207.628 122.934,204.294 124.5,201.5C 121.939,201.553 119.939,200.553 118.5,198.5C 119.067,196.018 119.734,193.684 120.5,191.5 Z"/></g>
<g><path style="opacity:1" fill="#b1a24b" d="M 295.5,191.5 C 295.666,195.846 295.499,200.179 295,204.5C 294.768,205.737 294.268,206.737 293.5,207.5C 293.527,201.949 294.194,196.616 295.5,191.5 Z"/></g>
<g><path style="opacity:1" fill="#aea64d" d="M 293.5,207.5 C 293.59,210.152 292.924,212.485 291.5,214.5C 291.41,211.848 292.076,209.515 293.5,207.5 Z"/></g>
<g><path style="opacity:1" fill="#c69434" d="M 156.5,216.5 C 158.58,218.047 160.913,219.381 163.5,220.5C 165.184,223.825 167.184,226.825 169.5,229.5C 164.167,226.167 159.833,221.833 156.5,216.5 Z"/></g>
<g><path style="opacity:1" fill="#1791a2" d="M 289.5,216.5 C 288.551,218.737 287.884,221.071 287.5,223.5C 285.327,227.852 282.66,231.852 279.5,235.5C 277.611,236.604 275.945,237.937 274.5,239.5C 274.443,238.391 274.11,237.391 273.5,236.5C 274.731,235.282 275.898,233.949 277,232.5C 277.414,232.957 277.914,233.291 278.5,233.5C 279.429,232.311 279.762,230.978 279.5,229.5C 282.5,229.833 283.833,228.5 283.5,225.5C 280.287,226.06 277.287,227.227 274.5,229C 273.62,230.356 273.286,231.856 273.5,233.5C 271.146,233.838 268.813,234.338 266.5,235C 264.023,236.705 262.689,238.705 262.5,241C 257.742,240.346 253.075,241.013 248.5,243C 243.476,243.982 238.643,243.482 234,241.5C 231.213,242.517 228.38,242.684 225.5,242C 224.619,241.292 223.953,240.458 223.5,239.5C 232.418,239.183 241.251,239.516 250,240.5C 253.076,239.712 256.242,239.212 259.5,239C 260.337,237.989 260.67,236.822 260.5,235.5C 263.714,234.56 266.714,233.06 269.5,231C 271.037,229.89 271.703,228.39 271.5,226.5C 273.512,227.014 275.512,227.18 277.5,227C 276.978,226.439 276.645,225.772 276.5,225C 284.029,216.772 289.029,207.272 291.5,196.5C 291.833,197.667 292.167,198.833 292.5,200C 291.023,205.438 290.023,210.938 289.5,216.5 Z"/></g>
<g><path style="opacity:1" fill="#b7a046" d="M 291.5,215.5 C 290.735,218.096 290.401,220.763 290.5,223.5C 289.5,223.5 288.5,223.5 287.5,223.5C 287.884,221.071 288.551,218.737 289.5,216.5C 290.167,216.167 290.833,215.833 291.5,215.5 Z"/></g>
<g><path style="opacity:1" fill="#c58b2c" d="M 72.5,223.5 C 73.8333,227.167 75.1667,230.833 76.5,234.5C 77.0802,238.81 77.4135,243.143 77.5,247.5C 75.0517,239.78 73.3851,231.78 72.5,223.5 Z"/></g>
<g><path style="opacity:1" fill="#de8c16" d="M 134.5,212.5 C 143.325,228.146 151.658,244.146 159.5,260.5C 156.703,260.033 155.369,258.367 155.5,255.5C 154.5,255.5 153.5,255.5 152.5,255.5C 152.541,249.248 151.208,248.915 148.5,254.5C 147.675,255.386 146.675,255.719 145.5,255.5C 146.363,252.626 147.697,249.959 149.5,247.5C 148.303,244.911 147.303,242.244 146.5,239.5C 144.917,241.99 143.917,244.657 143.5,247.5C 132.797,250.697 123.131,255.863 114.5,263C 108.445,264.853 102.445,267.019 96.5,269.5C 93.1749,272.816 91.5083,276.816 91.5,281.5C 88.0285,276.223 85.3618,270.556 83.5,264.5C 84.8221,264.33 85.9887,264.663 87,265.5C 86.5923,260.742 88.7589,258.409 93.5,258.5C 93.5,256.5 93.5,254.5 93.5,252.5C 96.8984,252.82 100.232,252.487 103.5,251.5C 109.366,247.469 115.366,243.636 121.5,240C 125.5,239.667 129.5,239.333 133.5,239C 132.01,237.228 130.343,237.061 128.5,238.5C 127.24,236.647 127.24,234.814 128.5,233C 129.76,231.887 130.927,231.72 132,232.5C 133.149,229.607 133.649,226.607 133.5,223.5C 131.641,223.539 130.308,222.706 129.5,221C 130.723,218.948 131.723,216.781 132.5,214.5C 133.192,215.025 133.692,215.692 134,216.5C 134.49,215.207 134.657,213.873 134.5,212.5 Z"/></g>
<g><path style="opacity:1" fill="#ab8f42" d="M 279.5,235.5 C 279.328,236.492 279.662,237.158 280.5,237.5C 278.882,239.316 276.882,240.649 274.5,241.5C 274.5,240.833 274.5,240.167 274.5,239.5C 275.945,237.937 277.611,236.604 279.5,235.5 Z"/></g>
<g><path style="opacity:1" fill="#208c9e" d="M 182.5,193.5 C 184.806,193.993 187.139,194.326 189.5,194.5C 189.318,196.675 188.651,198.675 187.5,200.5C 187.667,201.167 187.833,201.833 188,202.5C 189.57,201.386 190.903,200.053 192,198.5C 192.553,201.82 191.386,204.486 188.5,206.5C 190.472,208.415 191.472,210.749 191.5,213.5C 193.833,213.5 196.167,213.5 198.5,213.5C 198.338,215.527 198.505,217.527 199,219.5C 202.558,220.565 203.058,222.231 200.5,224.5C 202.193,225.228 203.693,226.228 205,227.5C 205.949,231.378 207.115,231.378 208.5,227.5C 210.283,229.023 210.949,231.023 210.5,233.5C 211.833,233.5 213.167,233.5 214.5,233.5C 214.789,228.408 215.789,228.241 217.5,233C 215.718,234.678 215.385,236.511 216.5,238.5C 218.316,237.265 219.983,237.265 221.5,238.5C 218.402,238.413 218.068,238.913 220.5,240C 218.5,240.333 216.5,240.667 214.5,241C 215.056,241.383 215.389,241.883 215.5,242.5C 213.201,241.222 210.868,239.889 208.5,238.5C 200.013,230.152 193.013,220.818 187.5,210.5C 187.358,206.55 185.858,203.217 183,200.5C 182.503,198.19 182.337,195.857 182.5,193.5 Z"/></g>
<g><path style="opacity:1" fill="#137e9d" d="M 273.5,236.5 C 272.022,236.238 270.689,236.571 269.5,237.5C 267.942,239.554 265.942,241.054 263.5,242C 256.067,242.581 248.9,244.081 242,246.5C 240.635,246.156 239.468,245.489 238.5,244.5C 237.548,246.045 237.215,247.712 237.5,249.5C 240.898,249.82 244.232,249.487 247.5,248.5C 246.371,246.471 246.871,246.137 249,247.5C 253.767,246.548 258.6,245.715 263.5,245C 266.93,242.618 270.597,240.785 274.5,239.5C 274.5,240.167 274.5,240.833 274.5,241.5C 263.24,248.62 250.907,251.953 237.5,251.5C 234.036,248.958 230.036,247.624 225.5,247.5C 223.883,246.962 222.216,246.629 220.5,246.5C 218.651,245.407 216.984,244.074 215.5,242.5C 215.389,241.883 215.056,241.383 214.5,241C 216.5,240.667 218.5,240.333 220.5,240C 218.068,238.913 218.402,238.413 221.5,238.5C 221.842,239.338 222.508,239.672 223.5,239.5C 223.953,240.458 224.619,241.292 225.5,242C 228.38,242.684 231.213,242.517 234,241.5C 238.643,243.482 243.476,243.982 248.5,243C 253.075,241.013 257.742,240.346 262.5,241C 262.689,238.705 264.023,236.705 266.5,235C 268.813,234.338 271.146,233.838 273.5,233.5C 273.286,231.856 273.62,230.356 274.5,229C 277.287,227.227 280.287,226.06 283.5,225.5C 283.833,228.5 282.5,229.833 279.5,229.5C 279.762,230.978 279.429,232.311 278.5,233.5C 277.914,233.291 277.414,232.957 277,232.5C 275.898,233.949 274.731,235.282 273.5,236.5 Z"/></g>
<g><path style="opacity:1" fill="#057ba6" d="M 273.5,236.5 C 274.11,237.391 274.443,238.391 274.5,239.5C 270.597,240.785 266.93,242.618 263.5,245C 258.6,245.715 253.767,246.548 249,247.5C 246.871,246.137 246.371,246.471 247.5,248.5C 244.232,249.487 240.898,249.82 237.5,249.5C 237.215,247.712 237.548,246.045 238.5,244.5C 239.468,245.489 240.635,246.156 242,246.5C 248.9,244.081 256.067,242.581 263.5,242C 265.942,241.054 267.942,239.554 269.5,237.5C 270.689,236.571 272.022,236.238 273.5,236.5 Z"/></g>
<g><path style="opacity:1" fill="#b78636" d="M 199.5,245.5 C 202.839,245.89 206.173,246.39 209.5,247C 210.056,247.383 210.389,247.883 210.5,248.5C 206.353,248.874 202.686,247.874 199.5,245.5 Z"/></g>
<g><path style="opacity:1" fill="#be8f35" d="M 220.5,246.5 C 222.216,246.629 223.883,246.962 225.5,247.5C 227.364,249.014 229.364,250.347 231.5,251.5C 224.223,251.494 217.223,250.494 210.5,248.5C 214.182,248.665 217.848,248.499 221.5,248C 220.944,247.617 220.611,247.117 220.5,246.5 Z"/></g>
<g><path style="opacity:1" fill="#4f7a73" d="M 225.5,247.5 C 230.036,247.624 234.036,248.958 237.5,251.5C 235.5,251.5 233.5,251.5 231.5,251.5C 229.364,250.347 227.364,249.014 225.5,247.5 Z"/></g>
<g><path style="opacity:1" fill="#c5902c" d="M 326.5,282.5 C 324.833,282.5 323.167,282.5 321.5,282.5C 321.5,286.833 321.5,291.167 321.5,295.5C 320.514,291.03 320.181,286.363 320.5,281.5C 321.833,281.5 323.167,281.5 324.5,281.5C 324.5,280.167 324.5,278.833 324.5,277.5C 323.178,277.67 322.011,277.337 321,276.5C 320.333,273.833 320.333,271.167 321,268.5C 322.401,266.808 324.234,266.141 326.5,266.5C 326.5,265.5 326.5,264.5 326.5,263.5C 316.739,262.259 312.072,266.592 312.5,276.5C 311.5,276.5 310.5,276.5 309.5,276.5C 309.5,278.5 309.5,280.5 309.5,282.5C 309.167,282.5 308.833,282.5 308.5,282.5C 308.5,280.167 308.5,277.833 308.5,275.5C 309.5,275.5 310.5,275.5 311.5,275.5C 311.043,271.416 311.71,267.583 313.5,264C 318.494,261.672 323.827,260.839 329.5,261.5C 330.028,266.811 327.694,269.145 322.5,268.5C 322.5,270.833 322.5,273.167 322.5,275.5C 323.833,275.5 325.167,275.5 326.5,275.5C 326.5,277.833 326.5,280.167 326.5,282.5 Z"/></g>
<g><path style="opacity:1" fill="#df8611" d="M 159.5,260.5 C 162.572,265.788 164.572,271.454 165.5,277.5C 164.521,276.235 163.521,274.901 162.5,273.5C 161.201,274.09 160.368,275.09 160,276.5C 159.667,275.167 159.333,273.833 159,272.5C 155.493,273.587 151.993,274.753 148.5,276C 147.833,277 147.167,278 146.5,279C 140.175,279.5 133.842,279.666 127.5,279.5C 127.817,282.572 127.484,285.572 126.5,288.5C 121.085,290.664 115.919,293.331 111,296.5C 109.989,295.663 108.822,295.33 107.5,295.5C 107.306,298.33 106.639,300.996 105.5,303.5C 99.8341,296.842 95.1674,289.509 91.5,281.5C 91.5083,276.816 93.1749,272.816 96.5,269.5C 102.445,267.019 108.445,264.853 114.5,263C 123.131,255.863 132.797,250.697 143.5,247.5C 143.917,244.657 144.917,241.99 146.5,239.5C 147.303,242.244 148.303,244.911 149.5,247.5C 147.697,249.959 146.363,252.626 145.5,255.5C 146.675,255.719 147.675,255.386 148.5,254.5C 151.208,248.915 152.541,249.248 152.5,255.5C 153.5,255.5 154.5,255.5 155.5,255.5C 155.369,258.367 156.703,260.033 159.5,260.5 Z"/></g>
<g><path style="opacity:1" fill="#1f939b" d="M 247.5,261.5 C 251.997,266.514 251.164,270.514 245,273.5C 238.37,271.326 236.87,267.326 240.5,261.5C 242.833,260.167 245.167,260.167 247.5,261.5 Z"/></g>
<g><path style="opacity:1" fill="#e69f1b" d="M 321.5,295.5 C 321.833,295.5 322.167,295.5 322.5,295.5C 323.167,295.5 323.833,295.5 324.5,295.5C 324.5,297.5 324.5,299.5 324.5,301.5C 319.5,301.5 314.5,301.5 309.5,301.5C 309.325,299.379 309.659,297.379 310.5,295.5C 311.163,293.527 311.496,291.361 311.5,289C 311.467,286.39 310.8,284.223 309.5,282.5C 309.5,280.5 309.5,278.5 309.5,276.5C 310.5,276.5 311.5,276.5 312.5,276.5C 312.072,266.592 316.739,262.259 326.5,263.5C 326.5,264.5 326.5,265.5 326.5,266.5C 324.234,266.141 322.401,266.808 321,268.5C 320.333,271.167 320.333,273.833 321,276.5C 322.011,277.337 323.178,277.67 324.5,277.5C 324.5,278.833 324.5,280.167 324.5,281.5C 323.167,281.5 321.833,281.5 320.5,281.5C 320.181,286.363 320.514,291.03 321.5,295.5 Z"/></g>
<g><path style="opacity:1" fill="#de800d" d="M 165.5,277.5 C 165.5,278.833 165.5,280.167 165.5,281.5C 164.37,283.315 163.704,285.315 163.5,287.5C 162.5,287.5 161.5,287.5 160.5,287.5C 160.339,284.472 161.006,281.639 162.5,279C 161.833,277 161.167,277 160.5,279C 159.302,287.414 159.635,295.747 161.5,304C 161,304.5 160.5,305 160,305.5C 159.502,302.183 159.335,298.85 159.5,295.5C 156.833,295.5 154.167,295.5 151.5,295.5C 151.5,296.5 151.5,297.5 151.5,298.5C 148.686,298.403 146.686,299.569 145.5,302C 145.905,302.945 146.572,303.612 147.5,304C 146.234,304.309 145.067,304.809 144,305.5C 142.582,303.637 140.749,303.137 138.5,304C 135.539,305.879 132.373,307.379 129,308.5C 126.257,307.101 123.757,305.434 121.5,303.5C 120.833,303.833 120.167,304.167 119.5,304.5C 120.865,305.941 122.365,307.274 124,308.5C 124.483,309.448 124.649,310.448 124.5,311.5C 122.833,311.5 121.167,311.5 119.5,311.5C 119.966,307.469 118.133,305.469 114,305.5C 112.674,305.755 111.674,306.422 111,307.5C 108.966,306.279 107.133,304.945 105.5,303.5C 106.639,300.996 107.306,298.33 107.5,295.5C 108.822,295.33 109.989,295.663 111,296.5C 115.919,293.331 121.085,290.664 126.5,288.5C 127.484,285.572 127.817,282.572 127.5,279.5C 133.842,279.666 140.175,279.5 146.5,279C 147.167,278 147.833,277 148.5,276C 151.993,274.753 155.493,273.587 159,272.5C 159.333,273.833 159.667,275.167 160,276.5C 160.368,275.09 161.201,274.09 162.5,273.5C 163.521,274.901 164.521,276.235 165.5,277.5 Z"/></g>
<g><path style="opacity:1" fill="#1998a0" d="M 305.5,282.5 C 303.5,282.5 301.5,282.5 299.5,282.5C 299.182,287.032 299.515,291.366 300.5,295.5C 301.672,296.705 303.005,296.705 304.5,295.5C 305.48,298.086 305.813,300.753 305.5,303.5C 300.6,303.967 295.933,303.301 291.5,301.5C 290.582,295.225 290.249,288.892 290.5,282.5C 289.5,282.5 288.5,282.5 287.5,282.5C 286.869,273.723 290.869,269.056 299.5,268.5C 299.5,270.833 299.5,273.167 299.5,275.5C 301.5,275.5 303.5,275.5 305.5,275.5C 305.5,277.833 305.5,280.167 305.5,282.5 Z"/></g>
<g><path style="opacity:1" fill="#09171c" d="M 230.5,274.5 C 229.243,275.818 227.909,277.151 226.5,278.5C 225.614,277.675 225.281,276.675 225.5,275.5C 222.167,275.5 218.833,275.5 215.5,275.5C 216.067,279.993 216.733,284.493 217.5,289C 216.733,293.507 216.067,298.007 215.5,302.5C 220.5,302.5 225.5,302.5 230.5,302.5C 227.854,303.164 225.021,303.498 222,303.5C 218.636,303.405 215.469,302.738 212.5,301.5C 206.555,302.739 200.555,303.739 194.5,304.5C 195.689,305.429 197.022,305.762 198.5,305.5C 198.889,308.553 198.223,311.22 196.5,313.5C 196.5,311.167 196.5,308.833 196.5,306.5C 195.5,306.5 194.5,306.5 193.5,306.5C 193.5,304.833 193.5,303.167 193.5,301.5C 209.089,304.244 215.089,297.911 211.5,282.5C 212.725,281.848 213.392,280.681 213.5,279C 213.441,277.564 213.108,276.231 212.5,275C 217.197,274.72 221.863,274.22 226.5,273.5C 227.849,273.846 229.183,274.179 230.5,274.5 Z"/></g>
<g><path style="opacity:1" fill="#060f12" d="M 240.5,261.5 C 236.87,267.326 238.37,271.326 245,273.5C 251.164,270.514 251.997,266.514 247.5,261.5C 251.52,262.51 253.353,265.177 253,269.5C 254.185,272.269 256.018,273.269 258.5,272.5C 260.776,273.213 263.109,273.713 265.5,274C 266.056,274.383 266.389,274.883 266.5,275.5C 262.833,275.5 259.167,275.5 255.5,275.5C 254.844,276.622 254.511,277.955 254.5,279.5C 256.038,284.729 256.705,290.063 256.5,295.5C 254.656,297.279 253.99,299.612 254.5,302.5C 253.833,302.5 253.167,302.5 252.5,302.5C 245.32,303.655 237.987,303.655 230.5,302.5C 230.5,300.167 230.5,297.833 230.5,295.5C 229.5,295.5 228.5,295.5 227.5,295.5C 227.335,292.482 227.502,289.482 228,286.5C 229.509,284.081 231.675,283.081 234.5,283.5C 234.5,280.5 234.5,277.5 234.5,274.5C 233.5,274.5 232.5,274.5 231.5,274.5C 232.911,272.461 234.911,271.461 237.5,271.5C 237.221,268.882 236.554,266.382 235.5,264C 236.653,262.117 238.319,261.284 240.5,261.5 Z"/></g>
<g><path style="opacity:1" fill="#24636c" d="M 250.5,295.5 C 249.51,289.355 249.177,283.022 249.5,276.5C 245.833,276.5 242.167,276.5 238.5,276.5C 238.5,278.5 238.5,280.5 238.5,282.5C 237.532,280.393 237.198,278.059 237.5,275.5C 241.833,275.5 246.167,275.5 250.5,275.5C 250.5,282.167 250.5,288.833 250.5,295.5 Z"/></g>
<g><path style="opacity:1" fill="#774516" d="M 165.5,277.5 C 166.924,279.515 167.59,281.848 167.5,284.5C 166.833,283.5 166.167,282.5 165.5,281.5C 165.5,280.167 165.5,278.833 165.5,277.5 Z"/></g>
<g><path style="opacity:1" fill="#199ba3" d="M 211.5,282.5 C 215.089,297.911 209.089,304.244 193.5,301.5C 193.5,303.167 193.5,304.833 193.5,306.5C 194.5,306.5 195.5,306.5 196.5,306.5C 196.5,308.833 196.5,311.167 196.5,313.5C 191.167,313.5 185.833,313.5 180.5,313.5C 181.441,307.22 182.107,300.886 182.5,294.5C 182.107,288.114 181.441,281.78 180.5,275.5C 185.322,274.935 189.822,275.601 194,277.5C 201.424,273.736 207.258,275.403 211.5,282.5 Z"/></g>
<g><path style="opacity:1" fill="#071114" d="M 195.5,282.5 C 201.098,283.49 202.932,286.824 201,292.5C 198.667,297.833 196.333,297.833 194,292.5C 193.153,288.928 193.653,285.594 195.5,282.5 Z"/></g>
<g><path style="opacity:1" fill="#1b9ba2" d="M 284.5,280.5 C 284.5,285.5 284.5,290.5 284.5,295.5C 285.5,295.5 286.5,295.5 287.5,295.5C 287.5,297.833 287.5,300.167 287.5,302.5C 283.167,302.5 278.833,302.5 274.5,302.5C 274.666,296.491 274.499,290.491 274,284.5C 272,283.167 270,283.167 268,284.5C 267.501,288.152 267.335,291.818 267.5,295.5C 268.833,295.5 270.167,295.5 271.5,295.5C 271.5,297.833 271.5,300.167 271.5,302.5C 265.833,302.5 260.167,302.5 254.5,302.5C 253.99,299.612 254.656,297.279 256.5,295.5C 257.163,293.527 257.496,291.361 257.5,289C 256.733,284.493 256.067,279.993 255.5,275.5C 259.167,275.5 262.833,275.5 266.5,275.5C 266.281,276.675 266.614,277.675 267.5,278.5C 273.849,272.9 279.516,273.567 284.5,280.5 Z"/></g>
<g><path style="opacity:1" fill="#023235" d="M 305.5,282.5 C 304.081,283.451 302.415,283.784 300.5,283.5C 300.5,287.5 300.5,291.5 300.5,295.5C 299.515,291.366 299.182,287.032 299.5,282.5C 301.5,282.5 303.5,282.5 305.5,282.5 Z"/></g>
<g><path style="opacity:1" fill="#936731" d="M 326.5,282.5 C 325.432,283.434 324.099,283.768 322.5,283.5C 322.5,287.5 322.5,291.5 322.5,295.5C 322.167,295.5 321.833,295.5 321.5,295.5C 321.5,291.167 321.5,286.833 321.5,282.5C 323.167,282.5 324.833,282.5 326.5,282.5 Z"/></g>
<g><path style="opacity:1" fill="#432904" d="M 308.5,282.5 C 308.833,282.5 309.167,282.5 309.5,282.5C 310.8,284.223 311.467,286.39 311.5,289C 311.496,291.361 311.163,293.527 310.5,295.5C 311.001,290.847 310.334,286.514 308.5,282.5 Z"/></g>
<g><path style="opacity:1" fill="#0a4348" d="M 255.5,275.5 C 256.067,279.993 256.733,284.493 257.5,289C 257.496,291.361 257.163,293.527 256.5,295.5C 256.705,290.063 256.038,284.729 254.5,279.5C 254.511,277.955 254.844,276.622 255.5,275.5 Z"/></g>
<g><path style="opacity:1" fill="#189ea5" d="M 250.5,295.5 C 252.344,297.279 253.01,299.612 252.5,302.5C 247.5,302.5 242.5,302.5 237.5,302.5C 237.5,300.167 237.5,297.833 237.5,295.5C 238.5,295.5 239.5,295.5 240.5,295.5C 241.097,290.706 240.43,286.373 238.5,282.5C 238.5,280.5 238.5,278.5 238.5,276.5C 242.167,276.5 245.833,276.5 249.5,276.5C 249.177,283.022 249.51,289.355 250.5,295.5 Z"/></g>
<g><path style="opacity:1" fill="#db7b0e" d="M 165.5,281.5 C 166.167,282.5 166.833,283.5 167.5,284.5C 167.5,285.5 167.5,286.5 167.5,287.5C 167.465,293.591 166.799,299.591 165.5,305.5C 165.167,306.833 164.833,308.167 164.5,309.5C 162.413,310.585 161.08,312.251 160.5,314.5C 160.167,314.5 159.833,314.5 159.5,314.5C 155.087,316.531 150.42,317.698 145.5,318C 144.366,319.016 144.699,319.683 146.5,320C 140.144,320.594 133.811,320.427 127.5,319.5C 121.806,318.988 116.806,316.821 112.5,313C 109.924,309.937 107.591,306.771 105.5,303.5C 107.133,304.945 108.966,306.279 111,307.5C 111.674,306.422 112.674,305.755 114,305.5C 118.133,305.469 119.966,307.469 119.5,311.5C 121.167,311.5 122.833,311.5 124.5,311.5C 124.649,310.448 124.483,309.448 124,308.5C 122.365,307.274 120.865,305.941 119.5,304.5C 120.167,304.167 120.833,303.833 121.5,303.5C 123.757,305.434 126.257,307.101 129,308.5C 132.373,307.379 135.539,305.879 138.5,304C 140.749,303.137 142.582,303.637 144,305.5C 145.067,304.809 146.234,304.309 147.5,304C 146.572,303.612 145.905,302.945 145.5,302C 146.686,299.569 148.686,298.403 151.5,298.5C 151.5,297.5 151.5,296.5 151.5,295.5C 154.167,295.5 156.833,295.5 159.5,295.5C 159.335,298.85 159.502,302.183 160,305.5C 160.5,305 161,304.5 161.5,304C 159.635,295.747 159.302,287.414 160.5,279C 161.167,277 161.833,277 162.5,279C 161.006,281.639 160.339,284.472 160.5,287.5C 161.5,287.5 162.5,287.5 163.5,287.5C 163.704,285.315 164.37,283.315 165.5,281.5 Z"/></g>
<g><path style="opacity:1" fill="#1a9aa3" d="M 230.5,274.5 C 230.833,274.5 231.167,274.5 231.5,274.5C 232.5,274.5 233.5,274.5 234.5,274.5C 234.5,277.5 234.5,280.5 234.5,283.5C 231.675,283.081 229.509,284.081 228,286.5C 227.502,289.482 227.335,292.482 227.5,295.5C 228.5,295.5 229.5,295.5 230.5,295.5C 230.5,297.833 230.5,300.167 230.5,302.5C 225.5,302.5 220.5,302.5 215.5,302.5C 216.067,298.007 216.733,293.507 217.5,289C 216.733,284.493 216.067,279.993 215.5,275.5C 218.833,275.5 222.167,275.5 225.5,275.5C 225.281,276.675 225.614,277.675 226.5,278.5C 227.909,277.151 229.243,275.818 230.5,274.5 Z"/></g>
<g><path style="opacity:1" fill="#082123" d="M 284.5,280.5 C 285.166,285.017 285.833,289.683 286.5,294.5C 287.167,294.167 287.833,293.833 288.5,293.5C 289.965,289.549 289.632,285.882 287.5,282.5C 288.5,282.5 289.5,282.5 290.5,282.5C 290.249,288.892 290.582,295.225 291.5,301.5C 285.824,303.558 280.157,303.891 274.5,302.5C 278.833,302.5 283.167,302.5 287.5,302.5C 287.5,300.167 287.5,297.833 287.5,295.5C 286.5,295.5 285.5,295.5 284.5,295.5C 284.5,290.5 284.5,285.5 284.5,280.5 Z"/></g>
<g><path style="opacity:1" fill="#945c1a" d="M 167.5,287.5 C 169.056,293.707 168.39,299.707 165.5,305.5C 166.799,299.591 167.465,293.591 167.5,287.5 Z"/></g>
<g><path style="opacity:1" fill="#c49343" d="M 310.5,295.5 C 309.659,297.379 309.325,299.379 309.5,301.5C 314.5,301.5 319.5,301.5 324.5,301.5C 324.5,299.5 324.5,297.5 324.5,295.5C 325.468,297.607 325.802,299.941 325.5,302.5C 319.833,302.5 314.167,302.5 308.5,302.5C 307.99,299.612 308.656,297.279 310.5,295.5 Z"/></g>
<g><path style="opacity:1" fill="#47210c" d="M 164.5,309.5 C 163.92,311.749 162.587,313.415 160.5,314.5C 161.08,312.251 162.413,310.585 164.5,309.5 Z"/></g>
<g><path style="opacity:1" fill="#b96c20" d="M 159.5,314.5 C 151.671,321.934 142.338,324.434 131.5,322C 129.563,321.878 128.23,321.045 127.5,319.5C 133.811,320.427 140.144,320.594 146.5,320C 144.699,319.683 144.366,319.016 145.5,318C 150.42,317.698 155.087,316.531 159.5,314.5 Z"/></g>
<g><path style="opacity:1" fill="#7a461b" d="M 199.5,325.5 C 194.156,325.334 188.823,325.501 183.5,326C 181.091,327.707 178.425,328.54 175.5,328.5C 177.273,327.108 179.273,325.941 181.5,325C 187.681,324.181 193.681,324.347 199.5,325.5 Z"/></g>
<g><path style="opacity:1" fill="#db770a" d="M 199.5,325.5 C 205.232,326.51 210.232,328.843 214.5,332.5C 214.801,336.035 216.635,338.368 220,339.5C 222.371,342.719 221.704,345.052 218,346.5C 217.506,348.134 217.34,349.801 217.5,351.5C 220.292,351.548 222.125,350.215 223,347.5C 224.167,348.667 225.333,349.833 226.5,351C 225.39,353.737 225.223,356.571 226,359.5C 226.667,358.833 227.333,358.167 228,357.5C 228.498,360.817 228.665,364.15 228.5,367.5C 227.908,370.127 227.575,372.794 227.5,375.5C 222.406,386.929 214.072,394.929 202.5,399.5C 195.5,399.5 188.5,399.5 181.5,399.5C 177.657,398.245 173.99,396.412 170.5,394C 169.619,393.292 168.953,392.458 168.5,391.5C 165.458,387.137 162.458,382.804 159.5,378.5C 157.077,373.116 156.077,367.449 156.5,361.5C 156.715,355.303 157.715,349.303 159.5,343.5C 160.526,340.628 162.192,338.128 164.5,336C 167.128,334.374 169.461,332.374 171.5,330C 172.745,329.209 174.078,328.709 175.5,328.5C 178.425,328.54 181.091,327.707 183.5,326C 188.823,325.501 194.156,325.334 199.5,325.5 Z"/></g>
<g><path style="opacity:1" fill="#cc7414" d="M 214.5,332.5 C 223.023,338.196 228.023,346.196 229.5,356.5C 229.815,360.371 229.482,364.038 228.5,367.5C 228.665,364.15 228.498,360.817 228,357.5C 227.333,358.167 226.667,358.833 226,359.5C 225.223,356.571 225.39,353.737 226.5,351C 225.333,349.833 224.167,348.667 223,347.5C 222.125,350.215 220.292,351.548 217.5,351.5C 217.34,349.801 217.506,348.134 218,346.5C 221.704,345.052 222.371,342.719 220,339.5C 216.635,338.368 214.801,336.035 214.5,332.5 Z"/></g>
<g><path style="opacity:1" fill="#b56b22" d="M 159.5,343.5 C 157.715,349.303 156.715,355.303 156.5,361.5C 156.077,367.449 157.077,373.116 159.5,378.5C 162.458,382.804 165.458,387.137 168.5,391.5C 167.761,391.631 167.094,391.464 166.5,391C 155.6,380.024 151.767,366.858 155,351.5C 156.274,348.609 157.774,345.942 159.5,343.5 Z"/></g>
<g><path style="opacity:1" fill="#7b4916" d="M 229.5,356.5 C 231.093,363.038 230.427,369.371 227.5,375.5C 227.575,372.794 227.908,370.127 228.5,367.5C 229.482,364.038 229.815,360.371 229.5,356.5 Z"/></g>
</svg>
